<svg version="1.1" xmlns="http://www.w3.org/2000/svg" width="484" height="449"><defs><clipPath id="AsOEcvcpPPWt"><path fill="none" stroke="none" d="M 54.5 5.5 L 454.5 5.5 L 454.5 405.5 L 54.5 405.5 L 54.5 5.5"/></clipPath><clipPath id="kCQIgGxPoHcv"><path fill="none" stroke="none" d="M 54.5 5.5 L 454.5 5.5 L 454.5 405.5 L 54.5 405.5 L 54.5 5.5"/></clipPath><clipPath id="hWeeoGUroAke"><path fill="none" stroke="none" d="M 54.5 5.5 L 454.5 5.5 L 454.5 405.5 L 54.5 405.5 L 54.5 5.5"/></clipPath><clipPath id="kXstkZkviyFm"><path fill="none" stroke="none" d="M 54.5 5.5 L 454.5 5.5 L 454.5 405.5 L 54.5 405.5 L 54.5 5.5"/></clipPath><clipPath id="JCRTRqMFWISF"><path fill="none" stroke="none" d="M 54.5 5.5 L 454.5 5.5 L 454.5 405.5 L 54.5 405.5 L 54.5 5.5"/></clipPath><clipPath id="CHFRMqRsiCKh"><path fill="none" stroke="none" d="M 54.5 5.5 L 454.5 5.5 L 454.5 405.5 L 54.5 405.5 L 54.5 5.5"/></clipPath><clipPath id="PVXViXIBmURr"><path fill="none" stroke="none" d="M 54.5 5.5 L 454.5 5.5 L 454.5 405.5 L 54.5 405.5 L 54.5 5.5"/></clipPath><clipPath id="bCJxsRNCernc"><path fill="none" stroke="none" d="M 54.5 5.5 L 454.5 5.5 L 454.5 405.5 L 54.5 405.5 L 54.5 5.5"/></clipPath><clipPath id="SusxAWHzcOLM"><path fill="none" stroke="none" d="M 54.5 5.5 L 454.5 5.5 L 454.5 405.5 L 54.5 405.5 L 54.5 5.5"/></clipPath><clipPath id="rXPdgEFSWrIq"><path fill="none" stroke="none" d="M 54.5 5.5 L 454.5 5.5 L 454.5 405.5 L 54.5 405.5 L 54.5 5.5"/></clipPath></defs><path fill="rgb(255,255,255)" stroke="none" paint-order="stroke" d="M 0.5 0.5 L 484.5 0.5 L 484.5 449.5 L 0.5 449.5 L 0.5 0.5" fill-opacity="1"/><rect fill="#FFFFFF" stroke="none" x="54" y="5" width="400" height="400" transform="matrix(1, 0, 0, 1, 0.5, 0.5)"/><path fill="rgb(255,255,255)" stroke="none" paint-order="stroke" d="M 54.5 5.5 L 454.5 5.5 L 454.5 405.5 L 54.5 405.5 L 54.5 5.5" fill-opacity="1"/><path fill="none" stroke="rgb(229,229,229)" paint-order="fill" d="M 54.5 5.5 L 454.5 5.5 L 454.5 405.5 L 54.5 405.5 L 54.5 5.5" stroke-opacity="1" stroke-linejoin="bevel" stroke-miterlimit="10" stroke-dasharray=""/><path fill="none" stroke="rgb(229,229,229)" paint-order="fill" d="M 85.5 405.5 L 85.5 5.5 M 171.5 405.5 L 171.5 5.5 M 256.5 405.5 L 256.5 5.5 M 342.5 405.5 L 342.5 5.5 M 427.5 405.5 L 427.5 5.5" stroke-opacity="1" stroke-linejoin="bevel" stroke-miterlimit="10" stroke-dasharray="" clip-path="url(#AsOEcvcpPPWt)"/><path fill="none" stroke="rgb(229,229,229)" paint-order="fill" d="M 54.5 370.5 L 454.5 370.5 M 54.5 309.5 L 454.5 309.5 M 54.5 248.5 L 454.5 248.5 M 54.5 187.5 L 454.5 187.5 M 54.5 126.5 L 454.5 126.5 M 54.5 64.5 L 454.5 64.5" stroke-opacity="1" stroke-linejoin="bevel" stroke-miterlimit="10" stroke-dasharray="" clip-path="url(#kCQIgGxPoHcv)"/><path fill="rgb(128,0,128)" stroke="rgb(128,0,128)" paint-order="fill" d="M 74.68181610107422 29.063608169555664 A 2 2 0 0 1 70.68181610107422 29.063608169555664 A 2 2 0 0 1 74.68181610107422 29.063608169555664" fill-opacity="1" clip-path="url(#hWeeoGUroAke)" stroke-opacity="1" stroke-linejoin="bevel" stroke-miterlimit="10" stroke-dasharray=""/><path fill="rgb(128,0,128)" stroke="rgb(128,0,128)" paint-order="fill" d="M 74.68181610107422 43.814697265625 A 2 2 0 0 1 70.68181610107422 43.814697265625 A 2 2 0 0 1 74.68181610107422 43.814697265625" fill-opacity="1" clip-path="url(#hWeeoGUroAke)" stroke-opacity="1" stroke-linejoin="bevel" stroke-miterlimit="10" stroke-dasharray=""/><path fill="rgb(128,0,128)" stroke="rgb(128,0,128)" paint-order="fill" d="M 74.68181610107422 67.13838958740234 A 2 2 0 0 1 70.68181610107422 67.13838958740234 A 2 2 0 0 1 74.68181610107422 67.13838958740234" fill-opacity="1" clip-path="url(#hWeeoGUroAke)" stroke-opacity="1" stroke-linejoin="bevel" stroke-miterlimit="10" stroke-dasharray=""/><path fill="rgb(128,0,128)" stroke="rgb(128,0,128)" paint-order="fill" d="M 74.68181610107422 103.96589660644531 A 2 2 0 0 1 70.68181610107422 103.96589660644531 A 2 2 0 0 1 74.68181610107422 103.96589660644531" fill-opacity="1" clip-path="url(#hWeeoGUroAke)" stroke-opacity="1" stroke-linejoin="bevel" stroke-miterlimit="10" stroke-dasharray=""/><path fill="rgb(128,0,128)" stroke="rgb(128,0,128)" paint-order="fill" d="M 74.68181610107422 161.98928833007812 A 2 2 0 0 1 70.68181610107422 161.98928833007812 A 2 2 0 0 1 74.68181610107422 161.98928833007812" fill-opacity="1" clip-path="url(#hWeeoGUroAke)" stroke-opacity="1" stroke-linejoin="bevel" stroke-miterlimit="10" stroke-dasharray=""/><path fill="rgb(128,0,128)" stroke="rgb(128,0,128)" paint-order="fill" d="M 74.68181610107422 253.09523010253906 A 2 2 0 0 1 70.68181610107422 253.09523010253906 A 2 2 0 0 1 74.68181610107422 253.09523010253906" fill-opacity="1" clip-path="url(#hWeeoGUroAke)" stroke-opacity="1" stroke-linejoin="bevel" stroke-miterlimit="10" stroke-dasharray=""/><path fill="rgb(255,0,0)" stroke="rgb(255,0,0)" paint-order="fill" d="M 211.58021545410156 27.748523712158203 A 2 2 0 0 1 207.58021545410156 27.748523712158203 A 2 2 0 0 1 211.58021545410156 27.748523712158203" fill-opacity="1" clip-path="url(#kXstkZkviyFm)" stroke-opacity="1" stroke-linejoin="bevel" stroke-miterlimit="10" stroke-dasharray=""/><path fill="rgb(255,0,0)" stroke="rgb(255,0,0)" paint-order="fill" d="M 211.58021545410156 46.953346252441406 A 2 2 0 0 1 207.58021545410156 46.953346252441406 A 2 2 0 0 1 211.58021545410156 46.953346252441406" fill-opacity="1" clip-path="url(#kXstkZkviyFm)" stroke-opacity="1" stroke-linejoin="bevel" stroke-miterlimit="10" stroke-dasharray=""/><path fill="rgb(255,0,0)" stroke="rgb(255,0,0)" paint-order="fill" d="M 211.58021545410156 80.89044952392578 A 2 2 0 0 1 207.58021545410156 80.89044952392578 A 2 2 0 0 1 211.58021545410156 80.89044952392578" fill-opacity="1" clip-path="url(#kXstkZkviyFm)" stroke-opacity="1" stroke-linejoin="bevel" stroke-miterlimit="10" stroke-dasharray=""/><path fill="rgb(255,0,0)" stroke="rgb(255,0,0)" paint-order="fill" d="M 211.58021545410156 139.4750213623047 A 2 2 0 0 1 207.58021545410156 139.4750213623047 A 2 2 0 0 1 211.58021545410156 139.4750213623047" fill-opacity="1" clip-path="url(#kXstkZkviyFm)" stroke-opacity="1" stroke-linejoin="bevel" stroke-miterlimit="10" stroke-dasharray=""/><path fill="rgb(255,0,0)" stroke="rgb(255,0,0)" paint-order="fill" d="M 211.58021545410156 236.61500549316406 A 2 2 0 0 1 207.58021545410156 236.61500549316406 A 2 2 0 0 1 211.58021545410156 236.61500549316406" fill-opacity="1" clip-path="url(#kXstkZkviyFm)" stroke-opacity="1" stroke-linejoin="bevel" stroke-miterlimit="10" stroke-dasharray=""/><path fill="rgb(255,0,0)" stroke="rgb(255,0,0)" paint-order="fill" d="M 211.58021545410156 387.31817626953125 A 2 2 0 0 1 207.58021545410156 387.31817626953125 A 2 2 0 0 1 211.58021545410156 387.31817626953125" fill-opacity="1" clip-path="url(#kXstkZkviyFm)" stroke-opacity="1" stroke-linejoin="bevel" stroke-miterlimit="10" stroke-dasharray=""/><path fill="rgb(0,128,0)" stroke="rgb(0,128,0)" paint-order="fill" d="M 395.5374450683594 23.75490379333496 A 2 2 0 0 1 391.5374450683594 23.75490379333496 A 2 2 0 0 1 395.5374450683594 23.75490379333496" fill-opacity="1" clip-path="url(#JCRTRqMFWISF)" stroke-opacity="1" stroke-linejoin="bevel" stroke-miterlimit="10" stroke-dasharray=""/><path fill="rgb(0,128,0)" stroke="rgb(0,128,0)" paint-order="fill" d="M 395.5374450683594 39.931270599365234 A 2 2 0 0 1 391.5374450683594 39.931270599365234 A 2 2 0 0 1 395.5374450683594 39.931270599365234" fill-opacity="1" clip-path="url(#JCRTRqMFWISF)" stroke-opacity="1" stroke-linejoin="bevel" stroke-miterlimit="10" stroke-dasharray=""/><path fill="rgb(0,128,0)" stroke="rgb(0,128,0)" paint-order="fill" d="M 395.5374450683594 68.89850616455078 A 2 2 0 0 1 391.5374450683594 68.89850616455078 A 2 2 0 0 1 395.5374450683594 68.89850616455078" fill-opacity="1" clip-path="url(#JCRTRqMFWISF)" stroke-opacity="1" stroke-linejoin="bevel" stroke-miterlimit="10" stroke-dasharray=""/><path fill="rgb(0,128,0)" stroke="rgb(0,128,0)" paint-order="fill" d="M 395.5374450683594 120.08893585205078 A 2 2 0 0 1 391.5374450683594 120.08893585205078 A 2 2 0 0 1 395.5374450683594 120.08893585205078" fill-opacity="1" clip-path="url(#JCRTRqMFWISF)" stroke-opacity="1" stroke-linejoin="bevel" stroke-miterlimit="10" stroke-dasharray=""/><path fill="rgb(0,128,0)" stroke="rgb(0,128,0)" paint-order="fill" d="M 395.5374450683594 208.4656219482422 A 2 2 0 0 1 391.5374450683594 208.4656219482422 A 2 2 0 0 1 395.5374450683594 208.4656219482422" fill-opacity="1" clip-path="url(#JCRTRqMFWISF)" stroke-opacity="1" stroke-linejoin="bevel" stroke-miterlimit="10" stroke-dasharray=""/><path fill="rgb(0,128,0)" stroke="rgb(0,128,0)" paint-order="fill" d="M 395.5374450683594 355.0369873046875 A 2 2 0 0 1 391.5374450683594 355.0369873046875 A 2 2 0 0 1 395.5374450683594 355.0369873046875" fill-opacity="1" clip-path="url(#JCRTRqMFWISF)" stroke-opacity="1" stroke-linejoin="bevel" stroke-miterlimit="10" stroke-dasharray=""/><path fill="rgb(0,0,255)" stroke="rgb(0,0,255)" paint-order="fill" d="M 438.31817626953125 23.68181800842285 A 2 2 0 0 1 434.31817626953125 23.68181800842285 A 2 2 0 0 1 438.31817626953125 23.68181800842285" fill-opacity="1" clip-path="url(#CHFRMqRsiCKh)" stroke-opacity="1" stroke-linejoin="bevel" stroke-miterlimit="10" stroke-dasharray=""/><path fill="rgb(0,0,255)" stroke="rgb(0,0,255)" paint-order="fill" d="M 438.31817626953125 39.70442581176758 A 2 2 0 0 1 434.31817626953125 39.70442581176758 A 2 2 0 0 1 438.31817626953125 39.70442581176758" fill-opacity="1" clip-path="url(#CHFRMqRsiCKh)" stroke-opacity="1" stroke-linejoin="bevel" stroke-miterlimit="10" stroke-dasharray=""/><path fill="rgb(0,0,255)" stroke="rgb(0,0,255)" paint-order="fill" d="M 438.31817626953125 68.18657684326172 A 2 2 0 0 1 434.31817626953125 68.18657684326172 A 2 2 0 0 1 438.31817626953125 68.18657684326172" fill-opacity="1" clip-path="url(#CHFRMqRsiCKh)" stroke-opacity="1" stroke-linejoin="bevel" stroke-miterlimit="10" stroke-dasharray=""/><path fill="rgb(0,0,255)" stroke="rgb(0,0,255)" paint-order="fill" d="M 438.31817626953125 117.86931610107422 A 2 2 0 0 1 434.31817626953125 117.86931610107422 A 2 2 0 0 1 438.31817626953125 117.86931610107422" fill-opacity="1" clip-path="url(#CHFRMqRsiCKh)" stroke-opacity="1" stroke-linejoin="bevel" stroke-miterlimit="10" stroke-dasharray=""/><path fill="rgb(0,0,255)" stroke="rgb(0,0,255)" paint-order="fill" d="M 438.31817626953125 201.72850036621094 A 2 2 0 0 1 434.31817626953125 201.72850036621094 A 2 2 0 0 1 438.31817626953125 201.72850036621094" fill-opacity="1" clip-path="url(#CHFRMqRsiCKh)" stroke-opacity="1" stroke-linejoin="bevel" stroke-miterlimit="10" stroke-dasharray=""/><path fill="rgb(0,0,255)" stroke="rgb(0,0,255)" paint-order="fill" d="M 434.04010009765625 335.65338134765625 A 2 2 0 0 1 430.04010009765625 335.65338134765625 A 2 2 0 0 1 434.04010009765625 335.65338134765625" fill-opacity="1" clip-path="url(#CHFRMqRsiCKh)" stroke-opacity="1" stroke-linejoin="bevel" stroke-miterlimit="10" stroke-dasharray=""/><path fill="none" stroke="rgb(0,0,0)" paint-order="fill" d="M 54.5 405.5 L 454.5 405.5" stroke-opacity="1" stroke-linejoin="bevel" stroke-miterlimit="10" stroke-dasharray=""/><path fill="none" stroke="rgb(0,0,0)" paint-order="fill" d="M 85.5 411.5 L 85.5 403.5 M 171.5 411.5 L 171.5 403.5 M 256.5 411.5 L 256.5 403.5 M 342.5 411.5 L 342.5 403.5 M 427.5 411.5 L 427.5 403.5" stroke-opacity="1" stroke-linejoin="bevel" stroke-miterlimit="10" stroke-dasharray=""/><path fill="none" stroke="rgb(0,0,0)" paint-order="fill" d="M 68.5 409.5 L 68.5 405.5 M 85.5 409.5 L 85.5 405.5 M 102.5 409.5 L 102.5 405.5 M 119.5 409.5 L 119.5 405.5 M 136.5 409.5 L 136.5 405.5 M 153.5 409.5 L 153.5 405.5 M 171.5 409.5 L 171.5 405.5 M 188.5 409.5 L 188.5 405.5 M 205.5 409.5 L 205.5 405.5 M 222.5 409.5 L 222.5 405.5 M 239.5 409.5 L 239.5 405.5 M 256.5 409.5 L 256.5 405.5 M 273.5 409.5 L 273.5 405.5 M 290.5 409.5 L 290.5 405.5 M 307.5 409.5 L 307.5 405.5 M 325.5 409.5 L 325.5 405.5 M 342.5 409.5 L 342.5 405.5 M 359.5 409.5 L 359.5 405.5 M 376.5 409.5 L 376.5 405.5 M 393.5 409.5 L 393.5 405.5 M 410.5 409.5 L 410.5 405.5 M 427.5 409.5 L 427.5 405.5 M 444.5 409.5 L 444.5 405.5" stroke-opacity="1" stroke-linejoin="bevel" stroke-miterlimit="10" stroke-dasharray=""/><text fill="rgb(68,68,68)" stroke="none" font-family="helvetica" font-size="11px" font-style="normal" font-weight="normal" text-decoration="normal" x="82.26604461669922" y="423" text-anchor="start" dominant-baseline="alphabetic" transform="matrix(1, 0, 0, 1, 0.5, 0.5)" fill-opacity="1">1</text><text fill="none" stroke="rgb(0,0,0)" font-family="helvetica" font-size="11px" font-style="normal" font-weight="normal" text-decoration="normal" x="82.26604461669922" y="423" text-anchor="start" dominant-baseline="alphabetic" transform="matrix(1, 0, 0, 1, 0.5, 0.5)" stroke-opacity="0" stroke-linejoin="bevel" stroke-miterlimit="10" stroke-dasharray="">1</text><text fill="rgb(68,68,68)" stroke="none" font-family="helvetica" font-size="11px" font-style="normal" font-weight="normal" text-decoration="normal" x="163.70254516601562" y="423" text-anchor="start" dominant-baseline="alphabetic" transform="matrix(1, 0, 0, 1, 0.5, 0.5)" fill-opacity="1">1.5</text><text fill="none" stroke="rgb(0,0,0)" font-family="helvetica" font-size="11px" font-style="normal" font-weight="normal" text-decoration="normal" x="163.70254516601562" y="423" text-anchor="start" dominant-baseline="alphabetic" transform="matrix(1, 0, 0, 1, 0.5, 0.5)" stroke-opacity="0" stroke-linejoin="bevel" stroke-miterlimit="10" stroke-dasharray="">1.5</text><text fill="rgb(68,68,68)" stroke="none" font-family="helvetica" font-size="11px" font-style="normal" font-weight="normal" text-decoration="normal" x="253.3890380859375" y="423" text-anchor="start" dominant-baseline="alphabetic" transform="matrix(1, 0, 0, 1, 0.5, 0.5)" fill-opacity="1">2</text><text fill="none" stroke="rgb(0,0,0)" font-family="helvetica" font-size="11px" font-style="normal" font-weight="normal" text-decoration="normal" x="253.3890380859375" y="423" text-anchor="start" dominant-baseline="alphabetic" transform="matrix(1, 0, 0, 1, 0.5, 0.5)" stroke-opacity="0" stroke-linejoin="bevel" stroke-miterlimit="10" stroke-dasharray="">2</text><text fill="rgb(68,68,68)" stroke="none" font-family="helvetica" font-size="11px" font-style="normal" font-weight="normal" text-decoration="normal" x="334.8255310058594" y="423" text-anchor="start" dominant-baseline="alphabetic" transform="matrix(1, 0, 0, 1, 0.5, 0.5)" fill-opacity="1">2.5</text><text fill="none" stroke="rgb(0,0,0)" font-family="helvetica" font-size="11px" font-style="normal" font-weight="normal" text-decoration="normal" x="334.8255310058594" y="423" text-anchor="start" dominant-baseline="alphabetic" transform="matrix(1, 0, 0, 1, 0.5, 0.5)" stroke-opacity="0" stroke-linejoin="bevel" stroke-miterlimit="10" stroke-dasharray="">2.5</text><text fill="rgb(68,68,68)" stroke="none" font-family="helvetica" font-size="11px" font-style="normal" font-weight="normal" text-decoration="normal" x="424.51202392578125" y="423" text-anchor="start" dominant-baseline="alphabetic" transform="matrix(1, 0, 0, 1, 0.5, 0.5)" fill-opacity="1">3</text><text fill="none" stroke="rgb(0,0,0)" font-family="helvetica" font-size="11px" font-style="normal" font-weight="normal" text-decoration="normal" x="424.51202392578125" y="423" text-anchor="start" dominant-baseline="alphabetic" transform="matrix(1, 0, 0, 1, 0.5, 0.5)" stroke-opacity="0" stroke-linejoin="bevel" stroke-miterlimit="10" stroke-dasharray="">3</text><text fill="rgb(68,68,68)" stroke="none" font-family="helvetica" font-size="13px" font-style="italic" font-weight="normal" text-decoration="normal" x="218.25634765625" y="443" text-anchor="start" dominant-baseline="alphabetic" transform="matrix(1, 0, 0, 1, 0.5, 0.5)" fill-opacity="1">rise time (ms)</text><text fill="none" stroke="rgb(0,0,0)" font-family="helvetica" font-size="13px" font-style="italic" font-weight="normal" text-decoration="normal" x="218.25634765625" y="443" text-anchor="start" dominant-baseline="alphabetic" transform="matrix(1, 0, 0, 1, 0.5, 0.5)" stroke-opacity="0" stroke-linejoin="bevel" stroke-miterlimit="10" stroke-dasharray="">rise time (ms)</text><path fill="none" stroke="rgb(0,0,0)" paint-order="fill" d="M 54.5 405.5 L 54.5 5.5" stroke-opacity="1" stroke-linejoin="bevel" stroke-miterlimit="10" stroke-dasharray=""/><path fill="none" stroke="rgb(0,0,0)" paint-order="fill" d="M 48.5 370.5 L 56.5 370.5 M 48.5 309.5 L 56.5 309.5 M 48.5 248.5 L 56.5 248.5 M 48.5 187.5 L 56.5 187.5 M 48.5 126.5 L 56.5 126.5 M 48.5 64.5 L 56.5 64.5" stroke-opacity="1" stroke-linejoin="bevel" stroke-miterlimit="10" stroke-dasharray=""/><path fill="none" stroke="rgb(0,0,0)" paint-order="fill" d="M 50.5 382.5 L 54.5 382.5 M 50.5 395.5 L 54.5 395.5 M 50.5 370.5 L 54.5 370.5 M 50.5 358.5 L 54.5 358.5 M 50.5 346.5 L 54.5 346.5 M 50.5 334.5 L 54.5 334.5 M 50.5 321.5 L 54.5 321.5 M 50.5 309.5 L 54.5 309.5 M 50.5 297.5 L 54.5 297.5 M 50.5 285.5 L 54.5 285.5 M 50.5 272.5 L 54.5 272.5 M 50.5 260.5 L 54.5 260.5 M 50.5 248.5 L 54.5 248.5 M 50.5 236.5 L 54.5 236.5 M 50.5 223.5 L 54.5 223.5 M 50.5 211.5 L 54.5 211.5 M 50.5 199.5 L 54.5 199.5 M 50.5 187.5 L 54.5 187.5 M 50.5 175.5 L 54.5 175.5 M 50.5 162.5 L 54.5 162.5 M 50.5 150.5 L 54.5 150.5 M 50.5 138.5 L 54.5 138.5 M 50.5 126.5 L 54.5 126.5 M 50.5 113.5 L 54.5 113.5 M 50.5 101.5 L 54.5 101.5 M 50.5 89.5 L 54.5 89.5 M 50.5 77.5 L 54.5 77.5 M 50.5 64.5 L 54.5 64.5 M 50.5 52.5 L 54.5 52.5 M 50.5 40.5 L 54.5 40.5 M 50.5 28.5 L 54.5 28.5 M 50.5 16.5 L 54.5 16.5" stroke-opacity="1" stroke-linejoin="bevel" stroke-miterlimit="10" stroke-dasharray=""/><text fill="rgb(68,68,68)" stroke="none" font-family="helvetica" font-size="11px" font-style="normal" font-weight="normal" text-decoration="normal" x="25.79638671875" y="373.7001647949219" text-anchor="start" dominant-baseline="alphabetic" transform="matrix(1, 0, 0, 1, 0.5, 0.5)" fill-opacity="1">−60</text><text fill="none" stroke="rgb(0,0,0)" font-family="helvetica" font-size="11px" font-style="normal" font-weight="normal" text-decoration="normal" x="25.79638671875" y="373.7001647949219" text-anchor="start" dominant-baseline="alphabetic" transform="matrix(1, 0, 0, 1, 0.5, 0.5)" stroke-opacity="0" stroke-linejoin="bevel" stroke-miterlimit="10" stroke-dasharray="">−60</text><text fill="rgb(68,68,68)" stroke="none" font-family="helvetica" font-size="11px" font-style="normal" font-weight="normal" text-decoration="normal" x="25.79638671875" y="312.5469055175781" text-anchor="start" dominant-baseline="alphabetic" transform="matrix(1, 0, 0, 1, 0.5, 0.5)" fill-opacity="1">−50</text><text fill="none" stroke="rgb(0,0,0)" font-family="helvetica" font-size="11px" font-style="normal" font-weight="normal" text-decoration="normal" x="25.79638671875" y="312.5469055175781" text-anchor="start" dominant-baseline="alphabetic" transform="matrix(1, 0, 0, 1, 0.5, 0.5)" stroke-opacity="0" stroke-linejoin="bevel" stroke-miterlimit="10" stroke-dasharray="">−50</text><text fill="rgb(68,68,68)" stroke="none" font-family="helvetica" font-size="11px" font-style="normal" font-weight="normal" text-decoration="normal" x="25.79638671875" y="251.39364624023438" text-anchor="start" dominant-baseline="alphabetic" transform="matrix(1, 0, 0, 1, 0.5, 0.5)" fill-opacity="1">−40</text><text fill="none" stroke="rgb(0,0,0)" font-family="helvetica" font-size="11px" font-style="normal" font-weight="normal" text-decoration="normal" x="25.79638671875" y="251.39364624023438" text-anchor="start" dominant-baseline="alphabetic" transform="matrix(1, 0, 0, 1, 0.5, 0.5)" stroke-opacity="0" stroke-linejoin="bevel" stroke-miterlimit="10" stroke-dasharray="">−40</text><text fill="rgb(68,68,68)" stroke="none" font-family="helvetica" font-size="11px" font-style="normal" font-weight="normal" text-decoration="normal" x="25.79638671875" y="190.24038696289062" text-anchor="start" dominant-baseline="alphabetic" transform="matrix(1, 0, 0, 1, 0.5, 0.5)" fill-opacity="1">−30</text><text fill="none" stroke="rgb(0,0,0)" font-family="helvetica" font-size="11px" font-style="normal" font-weight="normal" text-decoration="normal" x="25.79638671875" y="190.24038696289062" text-anchor="start" dominant-baseline="alphabetic" transform="matrix(1, 0, 0, 1, 0.5, 0.5)" stroke-opacity="0" stroke-linejoin="bevel" stroke-miterlimit="10" stroke-dasharray="">−30</text><text fill="rgb(68,68,68)" stroke="none" font-family="helvetica" font-size="11px" font-style="normal" font-weight="normal" text-decoration="normal" x="25.79638671875" y="129.0871353149414" text-anchor="start" dominant-baseline="alphabetic" transform="matrix(1, 0, 0, 1, 0.5, 0.5)" fill-opacity="1">−20</text><text fill="none" stroke="rgb(0,0,0)" font-family="helvetica" font-size="11px" font-style="normal" font-weight="normal" text-decoration="normal" x="25.79638671875" y="129.0871353149414" text-anchor="start" dominant-baseline="alphabetic" transform="matrix(1, 0, 0, 1, 0.5, 0.5)" stroke-opacity="0" stroke-linejoin="bevel" stroke-miterlimit="10" stroke-dasharray="">−20</text><text fill="rgb(68,68,68)" stroke="none" font-family="helvetica" font-size="11px" font-style="normal" font-weight="normal" text-decoration="normal" x="25.79638671875" y="67.93386840820312" text-anchor="start" dominant-baseline="alphabetic" transform="matrix(1, 0, 0, 1, 0.5, 0.5)" fill-opacity="1">−10</text><text fill="none" stroke="rgb(0,0,0)" font-family="helvetica" font-size="11px" font-style="normal" font-weight="normal" text-decoration="normal" x="25.79638671875" y="67.93386840820312" text-anchor="start" dominant-baseline="alphabetic" transform="matrix(1, 0, 0, 1, 0.5, 0.5)" stroke-opacity="0" stroke-linejoin="bevel" stroke-miterlimit="10" stroke-dasharray="">−10</text><text fill="rgb(68,68,68)" stroke="none" font-family="helvetica" font-size="13px" font-style="italic" font-weight="normal" text-decoration="normal" x="-21.375" y="202" text-anchor="start" dominant-baseline="alphabetic" transform="matrix(6.123233995736766e-17, -1, 1, 6.123233995736766e-17, -186.70361328125, 223.29638671875)" fill-opacity="1">amplitude (pA)</text><text fill="none" stroke="rgb(0,0,0)" font-family="helvetica" font-size="13px" font-style="italic" font-weight="normal" text-decoration="normal" x="-21.375" y="202" text-anchor="start" dominant-baseline="alphabetic" transform="matrix(6.123233995736766e-17, -1, 1, 6.123233995736766e-17, -186.70361328125, 223.29638671875)" stroke-opacity="0" stroke-linejoin="bevel" stroke-miterlimit="10" stroke-dasharray="">amplitude (pA)</text><path fill="rgb(255,255,255)" stroke="rgb(229,229,229)" paint-order="fill" d="M 64.5 286.5 L 154.27001953125 286.5 L 154.27001953125 395.5 L 64.5 395.5 L 64.5 286.5" fill-opacity="0.9490196078431372" clip-path="url(#PVXViXIBmURr)" stroke-opacity="0.5019607843137255" stroke-linejoin="bevel" stroke-miterlimit="10" stroke-dasharray=""/><g clip-path="url(#PVXViXIBmURr)"><text fill="rgb(68,68,68)" stroke="none" font-family="helvetica" font-size="13px" font-style="normal" font-weight="normal" text-decoration="normal" x="99" y="306" text-anchor="start" dominant-baseline="central" transform="matrix(1, 0, 0, 1, 0.5, 0.5)" fill-opacity="1">soma0</text></g><path fill="rgb(128,0,128)" stroke="rgb(128,0,128)" paint-order="fill" d="M 88.5 306.5 A 4 4 0 0 1 80.5 306.5 A 4 4 0 0 1 88.5 306.5" fill-opacity="1" clip-path="url(#PVXViXIBmURr)" stroke-opacity="1" stroke-linejoin="bevel" stroke-miterlimit="10" stroke-dasharray=""/><g clip-path="url(#PVXViXIBmURr)"><text fill="rgb(68,68,68)" stroke="none" font-family="helvetica" font-size="13px" font-style="normal" font-weight="normal" text-decoration="normal" x="99" y="329" text-anchor="start" dominant-baseline="central" transform="matrix(1, 0, 0, 1, 0.5, 0.5)" fill-opacity="1">dend685</text></g><path fill="rgb(255,0,0)" stroke="rgb(255,0,0)" paint-order="fill" d="M 88.5 329.5 A 4 4 0 0 1 80.5 329.5 A 4 4 0 0 1 88.5 329.5" fill-opacity="1" clip-path="url(#PVXViXIBmURr)" stroke-opacity="1" stroke-linejoin="bevel" stroke-miterlimit="10" stroke-dasharray=""/><g clip-path="url(#PVXViXIBmURr)"><text fill="rgb(68,68,68)" stroke="none" font-family="helvetica" font-size="13px" font-style="normal" font-weight="normal" text-decoration="normal" x="99" y="352" text-anchor="start" dominant-baseline="central" transform="matrix(1, 0, 0, 1, 0.5, 0.5)" fill-opacity="1">dend48</text></g><path fill="rgb(0,128,0)" stroke="rgb(0,128,0)" paint-order="fill" d="M 88.5 352.5 A 4 4 0 0 1 80.5 352.5 A 4 4 0 0 1 88.5 352.5" fill-opacity="1" clip-path="url(#PVXViXIBmURr)" stroke-opacity="1" stroke-linejoin="bevel" stroke-miterlimit="10" stroke-dasharray=""/><g clip-path="url(#PVXViXIBmURr)"><text fill="rgb(68,68,68)" stroke="none" font-family="helvetica" font-size="13px" font-style="normal" font-weight="normal" text-decoration="normal" x="99" y="375" text-anchor="start" dominant-baseline="central" transform="matrix(1, 0, 0, 1, 0.5, 0.5)" fill-opacity="1">dend588</text></g><path fill="rgb(0,0,255)" stroke="rgb(0,0,255)" paint-order="fill" d="M 88.5 375.5 A 4 4 0 0 1 80.5 375.5 A 4 4 0 0 1 88.5 375.5" fill-opacity="1" clip-path="url(#PVXViXIBmURr)" stroke-opacity="1" stroke-linejoin="bevel" stroke-miterlimit="10" stroke-dasharray=""/></svg>