<svg version="1.1" xmlns="http://www.w3.org/2000/svg" width="490" height="600"><defs><clipPath id="NuauJDZsdJyM"><path fill="none" stroke="none" d="M 60.5 5.5 L 460.5 5.5 L 460.5 556.5 L 60.5 556.5 L 60.5 5.5"/></clipPath><clipPath id="JyMKNcSRKaxR"><path fill="none" stroke="none" d="M 60.5 5.5 L 460.5 5.5 L 460.5 556.5 L 60.5 556.5 L 60.5 5.5"/></clipPath><clipPath id="sVkVNtbnoDXp"><path fill="none" stroke="none" d="M 60.5 5.5 L 460.5 5.5 L 460.5 556.5 L 60.5 556.5 L 60.5 5.5"/></clipPath><clipPath id="VIDbZmyxKIUq"><path fill="none" stroke="none" d="M 60.5 5.5 L 460.5 5.5 L 460.5 556.5 L 60.5 556.5 L 60.5 5.5"/></clipPath><clipPath id="osJpPzkJVSSR"><path fill="none" stroke="none" d="M 60.5 5.5 L 460.5 5.5 L 460.5 556.5 L 60.5 556.5 L 60.5 5.5"/></clipPath><clipPath id="eZiEhenzEVkl"><path fill="none" stroke="none" d="M 60.5 5.5 L 460.5 5.5 L 460.5 556.5 L 60.5 556.5 L 60.5 5.5"/></clipPath></defs><path fill="rgb(255,255,255)" stroke="none" paint-order="stroke" d="M 0.5 0.5 L 490.5 0.5 L 490.5 600.5 L 0.5 600.5 L 0.5 0.5" fill-opacity="1"/><rect fill="#FFFFFF" stroke="none" x="60" y="5" width="400" height="551" transform="matrix(1, 0, 0, 1, 0.5, 0.5)"/><path fill="rgb(255,255,255)" stroke="none" paint-order="stroke" d="M 60.5 5.5 L 460.5 5.5 L 460.5 556.5 L 60.5 556.5 L 60.5 5.5" fill-opacity="1"/><path fill="none" stroke="rgb(229,229,229)" paint-order="fill" d="M 60.5 5.5 L 460.5 5.5 L 460.5 556.5 L 60.5 556.5 L 60.5 5.5" stroke-opacity="1" stroke-linejoin="bevel" stroke-miterlimit="10" stroke-dasharray=""/><path fill="none" stroke="rgb(229,229,229)" paint-order="fill" d="M 145.5 556.5 L 145.5 5.5 M 231.5 556.5 L 231.5 5.5 M 317.5 556.5 L 317.5 5.5 M 403.5 556.5 L 403.5 5.5" stroke-opacity="1" stroke-linejoin="bevel" stroke-miterlimit="10" stroke-dasharray="" clip-path="url(#NuauJDZsdJyM)"/><path fill="none" stroke="rgb(229,229,229)" paint-order="fill" d="M 60.5 472.5 L 460.5 472.5 M 60.5 334.5 L 460.5 334.5 M 60.5 197.5 L 460.5 197.5 M 60.5 59.5 L 460.5 59.5" stroke-opacity="1" stroke-linejoin="bevel" stroke-miterlimit="10" stroke-dasharray="" clip-path="url(#JyMKNcSRKaxR)"/><path fill="rgb(31,119,180)" stroke="rgb(31,119,180)" paint-order="fill" d="M 80.68181610107422 531.4545288085938 A 2 2 0 0 1 76.68181610107422 531.4545288085938 A 2 2 0 0 1 80.68181610107422 531.4545288085938" fill-opacity="0.30196078431372547" clip-path="url(#sVkVNtbnoDXp)" stroke-opacity="0.30196078431372547" stroke-linejoin="bevel" stroke-miterlimit="10" stroke-dasharray=""/><path fill="rgb(31,119,180)" stroke="rgb(31,119,180)" paint-order="fill" d="M 87.13690185546875 513.3323974609375 A 2 2 0 0 1 83.13690185546875 513.3323974609375 A 2 2 0 0 1 87.13690185546875 513.3323974609375" fill-opacity="0.30196078431372547" clip-path="url(#sVkVNtbnoDXp)" stroke-opacity="0.30196078431372547" stroke-linejoin="bevel" stroke-miterlimit="10" stroke-dasharray=""/><path fill="rgb(31,119,180)" stroke="rgb(31,119,180)" paint-order="fill" d="M 237.75550842285156 214.95298767089844 A 2 2 0 0 1 233.75550842285156 214.95298767089844 A 2 2 0 0 1 237.75550842285156 214.95298767089844" fill-opacity="0.30196078431372547" clip-path="url(#sVkVNtbnoDXp)" stroke-opacity="0.30196078431372547" stroke-linejoin="bevel" stroke-miterlimit="10" stroke-dasharray=""/><path fill="rgb(31,119,180)" stroke="rgb(31,119,180)" paint-order="fill" d="M 444.31817626953125 30.545454025268555 A 2 2 0 0 1 440.31817626953125 30.545454025268555 A 2 2 0 0 1 444.31817626953125 30.545454025268555" fill-opacity="0.30196078431372547" clip-path="url(#sVkVNtbnoDXp)" stroke-opacity="0.30196078431372547" stroke-linejoin="bevel" stroke-miterlimit="10" stroke-dasharray=""/><path fill="none" stroke="rgb(0,0,0)" paint-order="fill" d="M 60.5 556.5 L 460.5 556.5" stroke-opacity="1" stroke-linejoin="bevel" stroke-miterlimit="10" stroke-dasharray=""/><path fill="none" stroke="rgb(0,0,0)" paint-order="fill" d="M 145.5 562.5 L 145.5 554.5 M 231.5 562.5 L 231.5 554.5 M 317.5 562.5 L 317.5 554.5 M 403.5 562.5 L 403.5 554.5" stroke-opacity="1" stroke-linejoin="bevel" stroke-miterlimit="10" stroke-dasharray=""/><path fill="none" stroke="rgb(0,0,0)" paint-order="fill" d="M 128.5 560.5 L 128.5 556.5 M 110.5 560.5 L 110.5 556.5 M 93.5 560.5 L 93.5 556.5 M 76.5 560.5 L 76.5 556.5 M 145.5 560.5 L 145.5 556.5 M 162.5 560.5 L 162.5 556.5 M 179.5 560.5 L 179.5 556.5 M 197.5 560.5 L 197.5 556.5 M 214.5 560.5 L 214.5 556.5 M 231.5 560.5 L 231.5 556.5 M 248.5 560.5 L 248.5 556.5 M 265.5 560.5 L 265.5 556.5 M 283.5 560.5 L 283.5 556.5 M 300.5 560.5 L 300.5 556.5 M 317.5 560.5 L 317.5 556.5 M 334.5 560.5 L 334.5 556.5 M 351.5 560.5 L 351.5 556.5 M 369.5 560.5 L 369.5 556.5 M 386.5 560.5 L 386.5 556.5 M 403.5 560.5 L 403.5 556.5 M 420.5 560.5 L 420.5 556.5 M 438.5 560.5 L 438.5 556.5 M 455.5 560.5 L 455.5 556.5" stroke-opacity="1" stroke-linejoin="bevel" stroke-miterlimit="10" stroke-dasharray=""/><text fill="rgb(68,68,68)" stroke="none" font-family="helvetica" font-size="11px" font-style="normal" font-weight="normal" text-decoration="normal" x="142.1343536376953" y="574" text-anchor="start" dominant-baseline="alphabetic" transform="matrix(1, 0, 0, 1, 0.5, 0.5)" fill-opacity="1">5</text><text fill="none" stroke="rgb(0,0,0)" font-family="helvetica" font-size="11px" font-style="normal" font-weight="normal" text-decoration="normal" x="142.1343536376953" y="574" text-anchor="start" dominant-baseline="alphabetic" transform="matrix(1, 0, 0, 1, 0.5, 0.5)" stroke-opacity="0" stroke-linejoin="bevel" stroke-miterlimit="10" stroke-dasharray="">5</text><text fill="rgb(68,68,68)" stroke="none" font-family="helvetica" font-size="11px" font-style="normal" font-weight="normal" text-decoration="normal" x="228.20211791992188" y="574" text-anchor="start" dominant-baseline="alphabetic" transform="matrix(1, 0, 0, 1, 0.5, 0.5)" fill-opacity="1">6</text><text fill="none" stroke="rgb(0,0,0)" font-family="helvetica" font-size="11px" font-style="normal" font-weight="normal" text-decoration="normal" x="228.20211791992188" y="574" text-anchor="start" dominant-baseline="alphabetic" transform="matrix(1, 0, 0, 1, 0.5, 0.5)" stroke-opacity="0" stroke-linejoin="bevel" stroke-miterlimit="10" stroke-dasharray="">6</text><text fill="rgb(68,68,68)" stroke="none" font-family="helvetica" font-size="11px" font-style="normal" font-weight="normal" text-decoration="normal" x="314.2698974609375" y="574" text-anchor="start" dominant-baseline="alphabetic" transform="matrix(1, 0, 0, 1, 0.5, 0.5)" fill-opacity="1">7</text><text fill="none" stroke="rgb(0,0,0)" font-family="helvetica" font-size="11px" font-style="normal" font-weight="normal" text-decoration="normal" x="314.2698974609375" y="574" text-anchor="start" dominant-baseline="alphabetic" transform="matrix(1, 0, 0, 1, 0.5, 0.5)" stroke-opacity="0" stroke-linejoin="bevel" stroke-miterlimit="10" stroke-dasharray="">7</text><text fill="rgb(68,68,68)" stroke="none" font-family="helvetica" font-size="11px" font-style="normal" font-weight="normal" text-decoration="normal" x="400.3376770019531" y="574" text-anchor="start" dominant-baseline="alphabetic" transform="matrix(1, 0, 0, 1, 0.5, 0.5)" fill-opacity="1">8</text><text fill="none" stroke="rgb(0,0,0)" font-family="helvetica" font-size="11px" font-style="normal" font-weight="normal" text-decoration="normal" x="400.3376770019531" y="574" text-anchor="start" dominant-baseline="alphabetic" transform="matrix(1, 0, 0, 1, 0.5, 0.5)" stroke-opacity="0" stroke-linejoin="bevel" stroke-miterlimit="10" stroke-dasharray="">8</text><text fill="rgb(68,68,68)" stroke="none" font-family="helvetica" font-size="13px" font-style="italic" font-weight="normal" text-decoration="normal" x="224.25634765625" y="594" text-anchor="start" dominant-baseline="alphabetic" transform="matrix(1, 0, 0, 1, 0.5, 0.5)" fill-opacity="1">rise time (ms)</text><text fill="none" stroke="rgb(0,0,0)" font-family="helvetica" font-size="13px" font-style="italic" font-weight="normal" text-decoration="normal" x="224.25634765625" y="594" text-anchor="start" dominant-baseline="alphabetic" transform="matrix(1, 0, 0, 1, 0.5, 0.5)" stroke-opacity="0" stroke-linejoin="bevel" stroke-miterlimit="10" stroke-dasharray="">rise time (ms)</text><path fill="none" stroke="rgb(0,0,0)" paint-order="fill" d="M 60.5 556.5 L 60.5 5.5" stroke-opacity="1" stroke-linejoin="bevel" stroke-miterlimit="10" stroke-dasharray=""/><path fill="none" stroke="rgb(0,0,0)" paint-order="fill" d="M 54.5 472.5 L 62.5 472.5 M 54.5 334.5 L 62.5 334.5 M 54.5 197.5 L 62.5 197.5 M 54.5 59.5 L 62.5 59.5" stroke-opacity="1" stroke-linejoin="bevel" stroke-miterlimit="10" stroke-dasharray=""/><path fill="none" stroke="rgb(0,0,0)" paint-order="fill" d="M 56.5 499.5 L 60.5 499.5 M 56.5 527.5 L 60.5 527.5 M 56.5 554.5 L 60.5 554.5 M 56.5 472.5 L 60.5 472.5 M 56.5 444.5 L 60.5 444.5 M 56.5 417.5 L 60.5 417.5 M 56.5 389.5 L 60.5 389.5 M 56.5 362.5 L 60.5 362.5 M 56.5 334.5 L 60.5 334.5 M 56.5 307.5 L 60.5 307.5 M 56.5 279.5 L 60.5 279.5 M 56.5 252.5 L 60.5 252.5 M 56.5 224.5 L 60.5 224.5 M 56.5 197.5 L 60.5 197.5 M 56.5 169.5 L 60.5 169.5 M 56.5 142.5 L 60.5 142.5 M 56.5 114.5 L 60.5 114.5 M 56.5 87.5 L 60.5 87.5 M 56.5 59.5 L 60.5 59.5 M 56.5 32.5 L 60.5 32.5" stroke-opacity="1" stroke-linejoin="bevel" stroke-miterlimit="10" stroke-dasharray=""/><text fill="rgb(68,68,68)" stroke="none" font-family="helvetica" font-size="11px" font-style="normal" font-weight="normal" text-decoration="normal" x="26.29638671875" y="475.39447021484375" text-anchor="start" dominant-baseline="alphabetic" transform="matrix(1, 0, 0, 1, 0.5, 0.5)" fill-opacity="1">−100</text><text fill="none" stroke="rgb(0,0,0)" font-family="helvetica" font-size="11px" font-style="normal" font-weight="normal" text-decoration="normal" x="26.29638671875" y="475.39447021484375" text-anchor="start" dominant-baseline="alphabetic" transform="matrix(1, 0, 0, 1, 0.5, 0.5)" stroke-opacity="0" stroke-linejoin="bevel" stroke-miterlimit="10" stroke-dasharray="">−100</text><text fill="rgb(68,68,68)" stroke="none" font-family="helvetica" font-size="11px" font-style="normal" font-weight="normal" text-decoration="normal" x="31.79638671875" y="337.9208068847656" text-anchor="start" dominant-baseline="alphabetic" transform="matrix(1, 0, 0, 1, 0.5, 0.5)" fill-opacity="1">−80</text><text fill="none" stroke="rgb(0,0,0)" font-family="helvetica" font-size="11px" font-style="normal" font-weight="normal" text-decoration="normal" x="31.79638671875" y="337.9208068847656" text-anchor="start" dominant-baseline="alphabetic" transform="matrix(1, 0, 0, 1, 0.5, 0.5)" stroke-opacity="0" stroke-linejoin="bevel" stroke-miterlimit="10" stroke-dasharray="">−80</text><text fill="rgb(68,68,68)" stroke="none" font-family="helvetica" font-size="11px" font-style="normal" font-weight="normal" text-decoration="normal" x="31.79638671875" y="200.44711303710938" text-anchor="start" dominant-baseline="alphabetic" transform="matrix(1, 0, 0, 1, 0.5, 0.5)" fill-opacity="1">−60</text><text fill="none" stroke="rgb(0,0,0)" font-family="helvetica" font-size="11px" font-style="normal" font-weight="normal" text-decoration="normal" x="31.79638671875" y="200.44711303710938" text-anchor="start" dominant-baseline="alphabetic" transform="matrix(1, 0, 0, 1, 0.5, 0.5)" stroke-opacity="0" stroke-linejoin="bevel" stroke-miterlimit="10" stroke-dasharray="">−60</text><text fill="rgb(68,68,68)" stroke="none" font-family="helvetica" font-size="11px" font-style="normal" font-weight="normal" text-decoration="normal" x="31.79638671875" y="62.97344207763672" text-anchor="start" dominant-baseline="alphabetic" transform="matrix(1, 0, 0, 1, 0.5, 0.5)" fill-opacity="1">−40</text><text fill="none" stroke="rgb(0,0,0)" font-family="helvetica" font-size="11px" font-style="normal" font-weight="normal" text-decoration="normal" x="31.79638671875" y="62.97344207763672" text-anchor="start" dominant-baseline="alphabetic" transform="matrix(1, 0, 0, 1, 0.5, 0.5)" stroke-opacity="0" stroke-linejoin="bevel" stroke-miterlimit="10" stroke-dasharray="">−40</text><text fill="rgb(68,68,68)" stroke="none" font-family="helvetica" font-size="13px" font-style="italic" font-weight="normal" text-decoration="normal" x="-20.875" y="277.5" text-anchor="start" dominant-baseline="alphabetic" transform="matrix(6.123233995736766e-17, -1, 1, 6.123233995736766e-17, -261.70361328125, 299.29638671875)" fill-opacity="1">amplitude (pA)</text><text fill="none" stroke="rgb(0,0,0)" font-family="helvetica" font-size="13px" font-style="italic" font-weight="normal" text-decoration="normal" x="-20.875" y="277.5" text-anchor="start" dominant-baseline="alphabetic" transform="matrix(6.123233995736766e-17, -1, 1, 6.123233995736766e-17, -261.70361328125, 299.29638671875)" stroke-opacity="0" stroke-linejoin="bevel" stroke-miterlimit="10" stroke-dasharray="">amplitude (pA)</text></svg>