<svg version="1.1" xmlns="http://www.w3.org/2000/svg" width="484" height="449"><defs><clipPath id="tdvphlPcfiEX"><path fill="none" stroke="none" d="M 54.5 5.5 L 454.5 5.5 L 454.5 405.5 L 54.5 405.5 L 54.5 5.5"/></clipPath><clipPath id="WoQNAsEitzBo"><path fill="none" stroke="none" d="M 54.5 5.5 L 454.5 5.5 L 454.5 405.5 L 54.5 405.5 L 54.5 5.5"/></clipPath><clipPath id="ILhdzkdoeHeP"><path fill="none" stroke="none" d="M 54.5 5.5 L 454.5 5.5 L 454.5 405.5 L 54.5 405.5 L 54.5 5.5"/></clipPath><clipPath id="GQGNcUUEcUXl"><path fill="none" stroke="none" d="M 54.5 5.5 L 454.5 5.5 L 454.5 405.5 L 54.5 405.5 L 54.5 5.5"/></clipPath><clipPath id="bBUMaiAHTwtD"><path fill="none" stroke="none" d="M 54.5 5.5 L 454.5 5.5 L 454.5 405.5 L 54.5 405.5 L 54.5 5.5"/></clipPath><clipPath id="fHtcnfbabUzy"><path fill="none" stroke="none" d="M 54.5 5.5 L 454.5 5.5 L 454.5 405.5 L 54.5 405.5 L 54.5 5.5"/></clipPath><clipPath id="egfRVJEHmOzL"><path fill="none" stroke="none" d="M 54.5 5.5 L 454.5 5.5 L 454.5 405.5 L 54.5 405.5 L 54.5 5.5"/></clipPath><clipPath id="kVLVAZJCHLVi"><path fill="none" stroke="none" d="M 54.5 5.5 L 454.5 5.5 L 454.5 405.5 L 54.5 405.5 L 54.5 5.5"/></clipPath><clipPath id="IPOAdfVCZCZF"><path fill="none" stroke="none" d="M 54.5 5.5 L 454.5 5.5 L 454.5 405.5 L 54.5 405.5 L 54.5 5.5"/></clipPath><clipPath id="XzfITbPtzuuC"><path fill="none" stroke="none" d="M 54.5 5.5 L 454.5 5.5 L 454.5 405.5 L 54.5 405.5 L 54.5 5.5"/></clipPath></defs><path fill="rgb(255,255,255)" stroke="none" paint-order="stroke" d="M 0.5 0.5 L 484.5 0.5 L 484.5 449.5 L 0.5 449.5 L 0.5 0.5" fill-opacity="1"/><rect fill="#FFFFFF" stroke="none" x="54" y="5" width="400" height="400" transform="matrix(1, 0, 0, 1, 0.5, 0.5)"/><path fill="rgb(255,255,255)" stroke="none" paint-order="stroke" d="M 54.5 5.5 L 454.5 5.5 L 454.5 405.5 L 54.5 405.5 L 54.5 5.5" fill-opacity="1"/><path fill="none" stroke="rgb(229,229,229)" paint-order="fill" d="M 54.5 5.5 L 454.5 5.5 L 454.5 405.5 L 54.5 405.5 L 54.5 5.5" stroke-opacity="1" stroke-linejoin="bevel" stroke-miterlimit="10" stroke-dasharray=""/><path fill="none" stroke="rgb(229,229,229)" paint-order="fill" d="M 149.5 405.5 L 149.5 5.5 M 260.5 405.5 L 260.5 5.5 M 370.5 405.5 L 370.5 5.5" stroke-opacity="1" stroke-linejoin="bevel" stroke-miterlimit="10" stroke-dasharray="" clip-path="url(#tdvphlPcfiEX)"/><path fill="none" stroke="rgb(229,229,229)" paint-order="fill" d="M 54.5 402.5 L 454.5 402.5 M 54.5 352.5 L 454.5 352.5 M 54.5 302.5 L 454.5 302.5 M 54.5 252.5 L 454.5 252.5 M 54.5 201.5 L 454.5 201.5 M 54.5 151.5 L 454.5 151.5 M 54.5 101.5 L 454.5 101.5 M 54.5 51.5 L 454.5 51.5" stroke-opacity="1" stroke-linejoin="bevel" stroke-miterlimit="10" stroke-dasharray="" clip-path="url(#WoQNAsEitzBo)"/><path fill="rgb(128,0,128)" stroke="rgb(128,0,128)" paint-order="fill" d="M 74.68181610107422 27.5102596282959 A 2 2 0 0 1 70.68181610107422 27.5102596282959 A 2 2 0 0 1 74.68181610107422 27.5102596282959" fill-opacity="1" clip-path="url(#ILhdzkdoeHeP)" stroke-opacity="1" stroke-linejoin="bevel" stroke-miterlimit="10" stroke-dasharray=""/><path fill="rgb(128,0,128)" stroke="rgb(128,0,128)" paint-order="fill" d="M 74.68181610107422 42.99209213256836 A 2 2 0 0 1 70.68181610107422 42.99209213256836 A 2 2 0 0 1 74.68181610107422 42.99209213256836" fill-opacity="1" clip-path="url(#ILhdzkdoeHeP)" stroke-opacity="1" stroke-linejoin="bevel" stroke-miterlimit="10" stroke-dasharray=""/><path fill="rgb(128,0,128)" stroke="rgb(128,0,128)" paint-order="fill" d="M 74.68181610107422 67.45634460449219 A 2 2 0 0 1 70.68181610107422 67.45634460449219 A 2 2 0 0 1 74.68181610107422 67.45634460449219" fill-opacity="1" clip-path="url(#ILhdzkdoeHeP)" stroke-opacity="1" stroke-linejoin="bevel" stroke-miterlimit="10" stroke-dasharray=""/><path fill="rgb(128,0,128)" stroke="rgb(128,0,128)" paint-order="fill" d="M 74.68181610107422 106.0477523803711 A 2 2 0 0 1 70.68181610107422 106.0477523803711 A 2 2 0 0 1 74.68181610107422 106.0477523803711" fill-opacity="1" clip-path="url(#ILhdzkdoeHeP)" stroke-opacity="1" stroke-linejoin="bevel" stroke-miterlimit="10" stroke-dasharray=""/><path fill="rgb(128,0,128)" stroke="rgb(128,0,128)" paint-order="fill" d="M 74.68181610107422 166.75839233398438 A 2 2 0 0 1 70.68181610107422 166.75839233398438 A 2 2 0 0 1 74.68181610107422 166.75839233398438" fill-opacity="1" clip-path="url(#ILhdzkdoeHeP)" stroke-opacity="1" stroke-linejoin="bevel" stroke-miterlimit="10" stroke-dasharray=""/><path fill="rgb(128,0,128)" stroke="rgb(128,0,128)" paint-order="fill" d="M 74.68181610107422 261.85736083984375 A 2 2 0 0 1 70.68181610107422 261.85736083984375 A 2 2 0 0 1 74.68181610107422 261.85736083984375" fill-opacity="1" clip-path="url(#ILhdzkdoeHeP)" stroke-opacity="1" stroke-linejoin="bevel" stroke-miterlimit="10" stroke-dasharray=""/><path fill="rgb(255,0,0)" stroke="rgb(255,0,0)" paint-order="fill" d="M 195.89393615722656 26.74374008178711 A 2 2 0 0 1 191.89393615722656 26.74374008178711 A 2 2 0 0 1 195.89393615722656 26.74374008178711" fill-opacity="1" clip-path="url(#GQGNcUUEcUXl)" stroke-opacity="1" stroke-linejoin="bevel" stroke-miterlimit="10" stroke-dasharray=""/><path fill="rgb(255,0,0)" stroke="rgb(255,0,0)" paint-order="fill" d="M 190.38429260253906 41.44105529785156 A 2 2 0 0 1 186.38429260253906 41.44105529785156 A 2 2 0 0 1 190.38429260253906 41.44105529785156" fill-opacity="1" clip-path="url(#GQGNcUUEcUXl)" stroke-opacity="1" stroke-linejoin="bevel" stroke-miterlimit="10" stroke-dasharray=""/><path fill="rgb(255,0,0)" stroke="rgb(255,0,0)" paint-order="fill" d="M 190.38429260253906 64.17937469482422 A 2 2 0 0 1 186.38429260253906 64.17937469482422 A 2 2 0 0 1 190.38429260253906 64.17937469482422" fill-opacity="1" clip-path="url(#GQGNcUUEcUXl)" stroke-opacity="1" stroke-linejoin="bevel" stroke-miterlimit="10" stroke-dasharray=""/><path fill="rgb(255,0,0)" stroke="rgb(255,0,0)" paint-order="fill" d="M 190.38429260253906 98.88414764404297 A 2 2 0 0 1 186.38429260253906 98.88414764404297 A 2 2 0 0 1 190.38429260253906 98.88414764404297" fill-opacity="1" clip-path="url(#GQGNcUUEcUXl)" stroke-opacity="1" stroke-linejoin="bevel" stroke-miterlimit="10" stroke-dasharray=""/><path fill="rgb(255,0,0)" stroke="rgb(255,0,0)" paint-order="fill" d="M 190.38429260253906 150.7694549560547 A 2 2 0 0 1 186.38429260253906 150.7694549560547 A 2 2 0 0 1 190.38429260253906 150.7694549560547" fill-opacity="1" clip-path="url(#GQGNcUUEcUXl)" stroke-opacity="1" stroke-linejoin="bevel" stroke-miterlimit="10" stroke-dasharray=""/><path fill="rgb(255,0,0)" stroke="rgb(255,0,0)" paint-order="fill" d="M 190.38429260253906 225.98338317871094 A 2 2 0 0 1 186.38429260253906 225.98338317871094 A 2 2 0 0 1 190.38429260253906 225.98338317871094" fill-opacity="1" clip-path="url(#GQGNcUUEcUXl)" stroke-opacity="1" stroke-linejoin="bevel" stroke-miterlimit="10" stroke-dasharray=""/><path fill="rgb(0,128,0)" stroke="rgb(0,128,0)" paint-order="fill" d="M 388.7314147949219 23.773571014404297 A 2 2 0 0 1 384.7314147949219 23.773571014404297 A 2 2 0 0 1 388.7314147949219 23.773571014404297" fill-opacity="1" clip-path="url(#bBUMaiAHTwtD)" stroke-opacity="1" stroke-linejoin="bevel" stroke-miterlimit="10" stroke-dasharray=""/><path fill="rgb(0,128,0)" stroke="rgb(0,128,0)" paint-order="fill" d="M 388.7314147949219 42.168670654296875 A 2 2 0 0 1 384.7314147949219 42.168670654296875 A 2 2 0 0 1 388.7314147949219 42.168670654296875" fill-opacity="1" clip-path="url(#bBUMaiAHTwtD)" stroke-opacity="1" stroke-linejoin="bevel" stroke-miterlimit="10" stroke-dasharray=""/><path fill="rgb(0,128,0)" stroke="rgb(0,128,0)" paint-order="fill" d="M 388.7314147949219 74.9407958984375 A 2 2 0 0 1 384.7314147949219 74.9407958984375 A 2 2 0 0 1 388.7314147949219 74.9407958984375" fill-opacity="1" clip-path="url(#bBUMaiAHTwtD)" stroke-opacity="1" stroke-linejoin="bevel" stroke-miterlimit="10" stroke-dasharray=""/><path fill="rgb(0,128,0)" stroke="rgb(0,128,0)" paint-order="fill" d="M 383.2217712402344 132.33001708984375 A 2 2 0 0 1 379.2217712402344 132.33001708984375 A 2 2 0 0 1 383.2217712402344 132.33001708984375" fill-opacity="1" clip-path="url(#bBUMaiAHTwtD)" stroke-opacity="1" stroke-linejoin="bevel" stroke-miterlimit="10" stroke-dasharray=""/><path fill="rgb(0,128,0)" stroke="rgb(0,128,0)" paint-order="fill" d="M 383.2217712402344 229.85189819335938 A 2 2 0 0 1 379.2217712402344 229.85189819335938 A 2 2 0 0 1 383.2217712402344 229.85189819335938" fill-opacity="1" clip-path="url(#bBUMaiAHTwtD)" stroke-opacity="1" stroke-linejoin="bevel" stroke-miterlimit="10" stroke-dasharray=""/><path fill="rgb(0,128,0)" stroke="rgb(0,128,0)" paint-order="fill" d="M 377.7121276855469 387.31817626953125 A 2 2 0 0 1 373.7121276855469 387.31817626953125 A 2 2 0 0 1 377.7121276855469 387.31817626953125" fill-opacity="1" clip-path="url(#bBUMaiAHTwtD)" stroke-opacity="1" stroke-linejoin="bevel" stroke-miterlimit="10" stroke-dasharray=""/><path fill="rgb(0,0,255)" stroke="rgb(0,0,255)" paint-order="fill" d="M 438.31817626953125 23.68181800842285 A 2 2 0 0 1 434.31817626953125 23.68181800842285 A 2 2 0 0 1 438.31817626953125 23.68181800842285" fill-opacity="1" clip-path="url(#fHtcnfbabUzy)" stroke-opacity="1" stroke-linejoin="bevel" stroke-miterlimit="10" stroke-dasharray=""/><path fill="rgb(0,0,255)" stroke="rgb(0,0,255)" paint-order="fill" d="M 438.31817626953125 36.68195724487305 A 2 2 0 0 1 434.31817626953125 36.68195724487305 A 2 2 0 0 1 438.31817626953125 36.68195724487305" fill-opacity="1" clip-path="url(#fHtcnfbabUzy)" stroke-opacity="1" stroke-linejoin="bevel" stroke-miterlimit="10" stroke-dasharray=""/><path fill="rgb(0,0,255)" stroke="rgb(0,0,255)" paint-order="fill" d="M 438.31817626953125 56.868648529052734 A 2 2 0 0 1 434.31817626953125 56.868648529052734 A 2 2 0 0 1 438.31817626953125 56.868648529052734" fill-opacity="1" clip-path="url(#fHtcnfbabUzy)" stroke-opacity="1" stroke-linejoin="bevel" stroke-miterlimit="10" stroke-dasharray=""/><path fill="rgb(0,0,255)" stroke="rgb(0,0,255)" paint-order="fill" d="M 438.31817626953125 87.8536605834961 A 2 2 0 0 1 434.31817626953125 87.8536605834961 A 2 2 0 0 1 438.31817626953125 87.8536605834961" fill-opacity="1" clip-path="url(#fHtcnfbabUzy)" stroke-opacity="1" stroke-linejoin="bevel" stroke-miterlimit="10" stroke-dasharray=""/><path fill="rgb(0,0,255)" stroke="rgb(0,0,255)" paint-order="fill" d="M 432.80853271484375 134.5758056640625 A 2 2 0 0 1 428.80853271484375 134.5758056640625 A 2 2 0 0 1 432.80853271484375 134.5758056640625" fill-opacity="1" clip-path="url(#fHtcnfbabUzy)" stroke-opacity="1" stroke-linejoin="bevel" stroke-miterlimit="10" stroke-dasharray=""/><path fill="rgb(0,0,255)" stroke="rgb(0,0,255)" paint-order="fill" d="M 432.80853271484375 203.15780639648438 A 2 2 0 0 1 428.80853271484375 203.15780639648438 A 2 2 0 0 1 432.80853271484375 203.15780639648438" fill-opacity="1" clip-path="url(#fHtcnfbabUzy)" stroke-opacity="1" stroke-linejoin="bevel" stroke-miterlimit="10" stroke-dasharray=""/><path fill="none" stroke="rgb(0,0,0)" paint-order="fill" d="M 54.5 405.5 L 454.5 405.5" stroke-opacity="1" stroke-linejoin="bevel" stroke-miterlimit="10" stroke-dasharray=""/><path fill="none" stroke="rgb(0,0,0)" paint-order="fill" d="M 149.5 411.5 L 149.5 403.5 M 260.5 411.5 L 260.5 403.5 M 370.5 411.5 L 370.5 403.5" stroke-opacity="1" stroke-linejoin="bevel" stroke-miterlimit="10" stroke-dasharray=""/><path fill="none" stroke="rgb(0,0,0)" paint-order="fill" d="M 127.5 409.5 L 127.5 405.5 M 105.5 409.5 L 105.5 405.5 M 83.5 409.5 L 83.5 405.5 M 61.5 409.5 L 61.5 405.5 M 149.5 409.5 L 149.5 405.5 M 171.5 409.5 L 171.5 405.5 M 193.5 409.5 L 193.5 405.5 M 215.5 409.5 L 215.5 405.5 M 237.5 409.5 L 237.5 405.5 M 260.5 409.5 L 260.5 405.5 M 282.5 409.5 L 282.5 405.5 M 304.5 409.5 L 304.5 405.5 M 326.5 409.5 L 326.5 405.5 M 348.5 409.5 L 348.5 405.5 M 370.5 409.5 L 370.5 405.5 M 392.5 409.5 L 392.5 405.5 M 414.5 409.5 L 414.5 405.5 M 436.5 409.5 L 436.5 405.5" stroke-opacity="1" stroke-linejoin="bevel" stroke-miterlimit="10" stroke-dasharray=""/><text fill="rgb(68,68,68)" stroke="none" font-family="helvetica" font-size="11px" font-style="normal" font-weight="normal" text-decoration="normal" x="146.56680297851562" y="423" text-anchor="start" dominant-baseline="alphabetic" transform="matrix(1, 0, 0, 1, 0.5, 0.5)" fill-opacity="1">3</text><text fill="none" stroke="rgb(0,0,0)" font-family="helvetica" font-size="11px" font-style="normal" font-weight="normal" text-decoration="normal" x="146.56680297851562" y="423" text-anchor="start" dominant-baseline="alphabetic" transform="matrix(1, 0, 0, 1, 0.5, 0.5)" stroke-opacity="0" stroke-linejoin="bevel" stroke-miterlimit="10" stroke-dasharray="">3</text><text fill="rgb(68,68,68)" stroke="none" font-family="helvetica" font-size="11px" font-style="normal" font-weight="normal" text-decoration="normal" x="252.6346435546875" y="423" text-anchor="start" dominant-baseline="alphabetic" transform="matrix(1, 0, 0, 1, 0.5, 0.5)" fill-opacity="1">3.5</text><text fill="none" stroke="rgb(0,0,0)" font-family="helvetica" font-size="11px" font-style="normal" font-weight="normal" text-decoration="normal" x="252.6346435546875" y="423" text-anchor="start" dominant-baseline="alphabetic" transform="matrix(1, 0, 0, 1, 0.5, 0.5)" stroke-opacity="0" stroke-linejoin="bevel" stroke-miterlimit="10" stroke-dasharray="">3.5</text><text fill="rgb(68,68,68)" stroke="none" font-family="helvetica" font-size="11px" font-style="normal" font-weight="normal" text-decoration="normal" x="366.9524841308594" y="423" text-anchor="start" dominant-baseline="alphabetic" transform="matrix(1, 0, 0, 1, 0.5, 0.5)" fill-opacity="1">4</text><text fill="none" stroke="rgb(0,0,0)" font-family="helvetica" font-size="11px" font-style="normal" font-weight="normal" text-decoration="normal" x="366.9524841308594" y="423" text-anchor="start" dominant-baseline="alphabetic" transform="matrix(1, 0, 0, 1, 0.5, 0.5)" stroke-opacity="0" stroke-linejoin="bevel" stroke-miterlimit="10" stroke-dasharray="">4</text><text fill="rgb(68,68,68)" stroke="none" font-family="helvetica" font-size="13px" font-style="italic" font-weight="normal" text-decoration="normal" x="218.25634765625" y="443" text-anchor="start" dominant-baseline="alphabetic" transform="matrix(1, 0, 0, 1, 0.5, 0.5)" fill-opacity="1">rise time (ms)</text><text fill="none" stroke="rgb(0,0,0)" font-family="helvetica" font-size="13px" font-style="italic" font-weight="normal" text-decoration="normal" x="218.25634765625" y="443" text-anchor="start" dominant-baseline="alphabetic" transform="matrix(1, 0, 0, 1, 0.5, 0.5)" stroke-opacity="0" stroke-linejoin="bevel" stroke-miterlimit="10" stroke-dasharray="">rise time (ms)</text><path fill="none" stroke="rgb(0,0,0)" paint-order="fill" d="M 54.5 405.5 L 54.5 5.5" stroke-opacity="1" stroke-linejoin="bevel" stroke-miterlimit="10" stroke-dasharray=""/><path fill="none" stroke="rgb(0,0,0)" paint-order="fill" d="M 48.5 402.5 L 56.5 402.5 M 48.5 352.5 L 56.5 352.5 M 48.5 302.5 L 56.5 302.5 M 48.5 252.5 L 56.5 252.5 M 48.5 201.5 L 56.5 201.5 M 48.5 151.5 L 56.5 151.5 M 48.5 101.5 L 56.5 101.5 M 48.5 51.5 L 56.5 51.5" stroke-opacity="1" stroke-linejoin="bevel" stroke-miterlimit="10" stroke-dasharray=""/><path fill="none" stroke="rgb(0,0,0)" paint-order="fill" d="M 50.5 402.5 L 54.5 402.5 M 50.5 392.5 L 54.5 392.5 M 50.5 382.5 L 54.5 382.5 M 50.5 372.5 L 54.5 372.5 M 50.5 362.5 L 54.5 362.5 M 50.5 352.5 L 54.5 352.5 M 50.5 342.5 L 54.5 342.5 M 50.5 332.5 L 54.5 332.5 M 50.5 322.5 L 54.5 322.5 M 50.5 312.5 L 54.5 312.5 M 50.5 302.5 L 54.5 302.5 M 50.5 292.5 L 54.5 292.5 M 50.5 282.5 L 54.5 282.5 M 50.5 272.5 L 54.5 272.5 M 50.5 262.5 L 54.5 262.5 M 50.5 252.5 L 54.5 252.5 M 50.5 242.5 L 54.5 242.5 M 50.5 232.5 L 54.5 232.5 M 50.5 222.5 L 54.5 222.5 M 50.5 212.5 L 54.5 212.5 M 50.5 201.5 L 54.5 201.5 M 50.5 191.5 L 54.5 191.5 M 50.5 181.5 L 54.5 181.5 M 50.5 171.5 L 54.5 171.5 M 50.5 161.5 L 54.5 161.5 M 50.5 151.5 L 54.5 151.5 M 50.5 141.5 L 54.5 141.5 M 50.5 131.5 L 54.5 131.5 M 50.5 121.5 L 54.5 121.5 M 50.5 111.5 L 54.5 111.5 M 50.5 101.5 L 54.5 101.5 M 50.5 91.5 L 54.5 91.5 M 50.5 81.5 L 54.5 81.5 M 50.5 71.5 L 54.5 71.5 M 50.5 61.5 L 54.5 61.5 M 50.5 51.5 L 54.5 51.5 M 50.5 41.5 L 54.5 41.5 M 50.5 31.5 L 54.5 31.5 M 50.5 21.5 L 54.5 21.5 M 50.5 10.5 L 54.5 10.5" stroke-opacity="1" stroke-linejoin="bevel" stroke-miterlimit="10" stroke-dasharray=""/><text fill="rgb(68,68,68)" stroke="none" font-family="helvetica" font-size="11px" font-style="normal" font-weight="normal" text-decoration="normal" x="25.79638671875" y="405.973388671875" text-anchor="start" dominant-baseline="alphabetic" transform="matrix(1, 0, 0, 1, 0.5, 0.5)" fill-opacity="1">−80</text><text fill="none" stroke="rgb(0,0,0)" font-family="helvetica" font-size="11px" font-style="normal" font-weight="normal" text-decoration="normal" x="25.79638671875" y="405.973388671875" text-anchor="start" dominant-baseline="alphabetic" transform="matrix(1, 0, 0, 1, 0.5, 0.5)" stroke-opacity="0" stroke-linejoin="bevel" stroke-miterlimit="10" stroke-dasharray="">−80</text><text fill="rgb(68,68,68)" stroke="none" font-family="helvetica" font-size="11px" font-style="normal" font-weight="normal" text-decoration="normal" x="25.79638671875" y="355.7179260253906" text-anchor="start" dominant-baseline="alphabetic" transform="matrix(1, 0, 0, 1, 0.5, 0.5)" fill-opacity="1">−70</text><text fill="none" stroke="rgb(0,0,0)" font-family="helvetica" font-size="11px" font-style="normal" font-weight="normal" text-decoration="normal" x="25.79638671875" y="355.7179260253906" text-anchor="start" dominant-baseline="alphabetic" transform="matrix(1, 0, 0, 1, 0.5, 0.5)" stroke-opacity="0" stroke-linejoin="bevel" stroke-miterlimit="10" stroke-dasharray="">−70</text><text fill="rgb(68,68,68)" stroke="none" font-family="helvetica" font-size="11px" font-style="normal" font-weight="normal" text-decoration="normal" x="25.79638671875" y="305.46246337890625" text-anchor="start" dominant-baseline="alphabetic" transform="matrix(1, 0, 0, 1, 0.5, 0.5)" fill-opacity="1">−60</text><text fill="none" stroke="rgb(0,0,0)" font-family="helvetica" font-size="11px" font-style="normal" font-weight="normal" text-decoration="normal" x="25.79638671875" y="305.46246337890625" text-anchor="start" dominant-baseline="alphabetic" transform="matrix(1, 0, 0, 1, 0.5, 0.5)" stroke-opacity="0" stroke-linejoin="bevel" stroke-miterlimit="10" stroke-dasharray="">−60</text><text fill="rgb(68,68,68)" stroke="none" font-family="helvetica" font-size="11px" font-style="normal" font-weight="normal" text-decoration="normal" x="25.79638671875" y="255.20701599121094" text-anchor="start" dominant-baseline="alphabetic" transform="matrix(1, 0, 0, 1, 0.5, 0.5)" fill-opacity="1">−50</text><text fill="none" stroke="rgb(0,0,0)" font-family="helvetica" font-size="11px" font-style="normal" font-weight="normal" text-decoration="normal" x="25.79638671875" y="255.20701599121094" text-anchor="start" dominant-baseline="alphabetic" transform="matrix(1, 0, 0, 1, 0.5, 0.5)" stroke-opacity="0" stroke-linejoin="bevel" stroke-miterlimit="10" stroke-dasharray="">−50</text><text fill="rgb(68,68,68)" stroke="none" font-family="helvetica" font-size="11px" font-style="normal" font-weight="normal" text-decoration="normal" x="25.79638671875" y="204.95156860351562" text-anchor="start" dominant-baseline="alphabetic" transform="matrix(1, 0, 0, 1, 0.5, 0.5)" fill-opacity="1">−40</text><text fill="none" stroke="rgb(0,0,0)" font-family="helvetica" font-size="11px" font-style="normal" font-weight="normal" text-decoration="normal" x="25.79638671875" y="204.95156860351562" text-anchor="start" dominant-baseline="alphabetic" transform="matrix(1, 0, 0, 1, 0.5, 0.5)" stroke-opacity="0" stroke-linejoin="bevel" stroke-miterlimit="10" stroke-dasharray="">−40</text><text fill="rgb(68,68,68)" stroke="none" font-family="helvetica" font-size="11px" font-style="normal" font-weight="normal" text-decoration="normal" x="25.79638671875" y="154.69610595703125" text-anchor="start" dominant-baseline="alphabetic" transform="matrix(1, 0, 0, 1, 0.5, 0.5)" fill-opacity="1">−30</text><text fill="none" stroke="rgb(0,0,0)" font-family="helvetica" font-size="11px" font-style="normal" font-weight="normal" text-decoration="normal" x="25.79638671875" y="154.69610595703125" text-anchor="start" dominant-baseline="alphabetic" transform="matrix(1, 0, 0, 1, 0.5, 0.5)" stroke-opacity="0" stroke-linejoin="bevel" stroke-miterlimit="10" stroke-dasharray="">−30</text><text fill="rgb(68,68,68)" stroke="none" font-family="helvetica" font-size="11px" font-style="normal" font-weight="normal" text-decoration="normal" x="25.79638671875" y="104.4406509399414" text-anchor="start" dominant-baseline="alphabetic" transform="matrix(1, 0, 0, 1, 0.5, 0.5)" fill-opacity="1">−20</text><text fill="none" stroke="rgb(0,0,0)" font-family="helvetica" font-size="11px" font-style="normal" font-weight="normal" text-decoration="normal" x="25.79638671875" y="104.4406509399414" text-anchor="start" dominant-baseline="alphabetic" transform="matrix(1, 0, 0, 1, 0.5, 0.5)" stroke-opacity="0" stroke-linejoin="bevel" stroke-miterlimit="10" stroke-dasharray="">−20</text><text fill="rgb(68,68,68)" stroke="none" font-family="helvetica" font-size="11px" font-style="normal" font-weight="normal" text-decoration="normal" x="25.79638671875" y="54.18519973754883" text-anchor="start" dominant-baseline="alphabetic" transform="matrix(1, 0, 0, 1, 0.5, 0.5)" fill-opacity="1">−10</text><text fill="none" stroke="rgb(0,0,0)" font-family="helvetica" font-size="11px" font-style="normal" font-weight="normal" text-decoration="normal" x="25.79638671875" y="54.18519973754883" text-anchor="start" dominant-baseline="alphabetic" transform="matrix(1, 0, 0, 1, 0.5, 0.5)" stroke-opacity="0" stroke-linejoin="bevel" stroke-miterlimit="10" stroke-dasharray="">−10</text><text fill="rgb(68,68,68)" stroke="none" font-family="helvetica" font-size="13px" font-style="italic" font-weight="normal" text-decoration="normal" x="-21.375" y="202" text-anchor="start" dominant-baseline="alphabetic" transform="matrix(6.123233995736766e-17, -1, 1, 6.123233995736766e-17, -186.70361328125, 223.29638671875)" fill-opacity="1">amplitude (pA)</text><text fill="none" stroke="rgb(0,0,0)" font-family="helvetica" font-size="13px" font-style="italic" font-weight="normal" text-decoration="normal" x="-21.375" y="202" text-anchor="start" dominant-baseline="alphabetic" transform="matrix(6.123233995736766e-17, -1, 1, 6.123233995736766e-17, -186.70361328125, 223.29638671875)" stroke-opacity="0" stroke-linejoin="bevel" stroke-miterlimit="10" stroke-dasharray="">amplitude (pA)</text><path fill="rgb(255,255,255)" stroke="rgb(229,229,229)" paint-order="fill" d="M 64.5 286.5 L 186.83984375 286.5 L 186.83984375 395.5 L 64.5 395.5 L 64.5 286.5" fill-opacity="0.9490196078431372" clip-path="url(#egfRVJEHmOzL)" stroke-opacity="0.5019607843137255" stroke-linejoin="bevel" stroke-miterlimit="10" stroke-dasharray=""/><g clip-path="url(#egfRVJEHmOzL)"><text fill="rgb(68,68,68)" stroke="none" font-family="helvetica" font-size="13px" font-style="normal" font-weight="normal" text-decoration="normal" x="99" y="306" text-anchor="start" dominant-baseline="central" transform="matrix(1, 0, 0, 1, 0.5, 0.5)" fill-opacity="1">soma0</text></g><path fill="rgb(128,0,128)" stroke="rgb(128,0,128)" paint-order="fill" d="M 88.5 306.5 A 4 4 0 0 1 80.5 306.5 A 4 4 0 0 1 88.5 306.5" fill-opacity="1" clip-path="url(#egfRVJEHmOzL)" stroke-opacity="1" stroke-linejoin="bevel" stroke-miterlimit="10" stroke-dasharray=""/><g clip-path="url(#egfRVJEHmOzL)"><text fill="rgb(68,68,68)" stroke="none" font-family="helvetica" font-size="13px" font-style="normal" font-weight="normal" text-decoration="normal" x="99" y="329" text-anchor="start" dominant-baseline="central" transform="matrix(1, 0, 0, 1, 0.5, 0.5)" fill-opacity="1">dend685 (#1)</text></g><path fill="rgb(255,0,0)" stroke="rgb(255,0,0)" paint-order="fill" d="M 88.5 329.5 A 4 4 0 0 1 80.5 329.5 A 4 4 0 0 1 88.5 329.5" fill-opacity="1" clip-path="url(#egfRVJEHmOzL)" stroke-opacity="1" stroke-linejoin="bevel" stroke-miterlimit="10" stroke-dasharray=""/><g clip-path="url(#egfRVJEHmOzL)"><text fill="rgb(68,68,68)" stroke="none" font-family="helvetica" font-size="13px" font-style="normal" font-weight="normal" text-decoration="normal" x="99" y="352" text-anchor="start" dominant-baseline="central" transform="matrix(1, 0, 0, 1, 0.5, 0.5)" fill-opacity="1">dend48 (#10)</text></g><path fill="rgb(0,128,0)" stroke="rgb(0,128,0)" paint-order="fill" d="M 88.5 352.5 A 4 4 0 0 1 80.5 352.5 A 4 4 0 0 1 88.5 352.5" fill-opacity="1" clip-path="url(#egfRVJEHmOzL)" stroke-opacity="1" stroke-linejoin="bevel" stroke-miterlimit="10" stroke-dasharray=""/><g clip-path="url(#egfRVJEHmOzL)"><text fill="rgb(68,68,68)" stroke="none" font-family="helvetica" font-size="13px" font-style="normal" font-weight="normal" text-decoration="normal" x="99" y="375" text-anchor="start" dominant-baseline="central" transform="matrix(1, 0, 0, 1, 0.5, 0.5)" fill-opacity="1">dend588 (#8)</text></g><path fill="rgb(0,0,255)" stroke="rgb(0,0,255)" paint-order="fill" d="M 88.5 375.5 A 4 4 0 0 1 80.5 375.5 A 4 4 0 0 1 88.5 375.5" fill-opacity="1" clip-path="url(#egfRVJEHmOzL)" stroke-opacity="1" stroke-linejoin="bevel" stroke-miterlimit="10" stroke-dasharray=""/></svg>