<svg version="1.1" xmlns="http://www.w3.org/2000/svg" width="387" height="349"><defs><clipPath id="pvUyUSfIGrtA"><path fill="none" stroke="none" d="M 57.5 5.5 L 357.5 5.5 L 357.5 305.5 L 57.5 305.5 L 57.5 5.5"/></clipPath><clipPath id="myTWbDHOilCP"><path fill="none" stroke="none" d="M 57.5 5.5 L 357.5 5.5 L 357.5 305.5 L 57.5 305.5 L 57.5 5.5"/></clipPath><clipPath id="olgExoNMunrg"><path fill="none" stroke="none" d="M 57.5 5.5 L 357.5 5.5 L 357.5 305.5 L 57.5 305.5 L 57.5 5.5"/></clipPath><clipPath id="rzOQTUmNTKfw"><path fill="none" stroke="none" d="M 57.5 5.5 L 357.5 5.5 L 357.5 305.5 L 57.5 305.5 L 57.5 5.5"/></clipPath><clipPath id="IApxLOFWIrvA"><path fill="none" stroke="none" d="M 57.5 5.5 L 357.5 5.5 L 357.5 305.5 L 57.5 305.5 L 57.5 5.5"/></clipPath><clipPath id="uEkyVfCVZTnq"><path fill="none" stroke="none" d="M 57.5 5.5 L 357.5 5.5 L 357.5 305.5 L 57.5 305.5 L 57.5 5.5"/></clipPath><clipPath id="uaSlZlQqyVJn"><path fill="none" stroke="none" d="M 57.5 5.5 L 357.5 5.5 L 357.5 305.5 L 57.5 305.5 L 57.5 5.5"/></clipPath><clipPath id="eSmDMDdSRLFV"><path fill="none" stroke="none" d="M 57.5 5.5 L 357.5 5.5 L 357.5 305.5 L 57.5 305.5 L 57.5 5.5"/></clipPath></defs><path fill="rgb(255,255,255)" stroke="none" paint-order="stroke" d="M 0.5 0.5 L 387.5 0.5 L 387.5 349.5 L 0.5 349.5 L 0.5 0.5" fill-opacity="1"/><rect fill="#FFFFFF" stroke="none" x="57" y="5" width="300" height="300" transform="matrix(1, 0, 0, 1, 0.5, 0.5)"/><path fill="rgb(255,255,255)" stroke="none" paint-order="stroke" d="M 57.5 5.5 L 357.5 5.5 L 357.5 305.5 L 57.5 305.5 L 57.5 5.5" fill-opacity="1"/><path fill="none" stroke="rgb(229,229,229)" paint-order="fill" d="M 57.5 5.5 L 357.5 5.5 L 357.5 305.5 L 57.5 305.5 L 57.5 5.5" stroke-opacity="1" stroke-linejoin="bevel" stroke-miterlimit="10" stroke-dasharray=""/><path fill="none" stroke="rgb(229,229,229)" paint-order="fill" d="M 113.5 5.5 L 113.5 305.5 M 168.5 5.5 L 168.5 305.5 M 224.5 5.5 L 224.5 305.5 M 279.5 5.5 L 279.5 305.5 M 335.5 5.5 L 335.5 305.5" stroke-opacity="1" stroke-linejoin="bevel" stroke-miterlimit="10" stroke-dasharray="" clip-path="url(#pvUyUSfIGrtA)"/><path fill="none" stroke="rgb(229,229,229)" paint-order="fill" d="M 57.5 72.5 L 357.5 72.5 M 57.5 138.5 L 357.5 138.5 M 57.5 205.5 L 357.5 205.5 M 57.5 272.5 L 357.5 272.5" stroke-opacity="1" stroke-linejoin="bevel" stroke-miterlimit="10" stroke-dasharray="" clip-path="url(#myTWbDHOilCP)"/><path fill="none" stroke="rgb(31,119,180)" paint-order="fill" d="M 74.16666412353516 42.47307205200195 L 135.27777099609375 93.3145980834961 L 232.5 290.3194580078125 L 257.5 296.4051818847656" stroke-opacity="1" stroke-linejoin="bevel" stroke-miterlimit="10" stroke-dasharray="" clip-path="url(#olgExoNMunrg)"/><path fill="rgb(31,119,180)" stroke="rgb(31,119,180)" paint-order="fill" d="M 76.16666412353516 42.47307205200195 A 2 2 0 0 1 72.16666412353516 42.47307205200195 A 2 2 0 0 1 76.16666412353516 42.47307205200195" fill-opacity="1" clip-path="url(#rzOQTUmNTKfw)" stroke-opacity="1" stroke-linejoin="bevel" stroke-miterlimit="10" stroke-dasharray=""/><path fill="rgb(31,119,180)" stroke="rgb(31,119,180)" paint-order="fill" d="M 137.27777099609375 93.3145980834961 A 2 2 0 0 1 133.27777099609375 93.3145980834961 A 2 2 0 0 1 137.27777099609375 93.3145980834961" fill-opacity="1" clip-path="url(#rzOQTUmNTKfw)" stroke-opacity="1" stroke-linejoin="bevel" stroke-miterlimit="10" stroke-dasharray=""/><path fill="rgb(31,119,180)" stroke="rgb(31,119,180)" paint-order="fill" d="M 234.5 290.3194580078125 A 2 2 0 0 1 230.5 290.3194580078125 A 2 2 0 0 1 234.5 290.3194580078125" fill-opacity="1" clip-path="url(#rzOQTUmNTKfw)" stroke-opacity="1" stroke-linejoin="bevel" stroke-miterlimit="10" stroke-dasharray=""/><path fill="rgb(31,119,180)" stroke="rgb(31,119,180)" paint-order="fill" d="M 259.5 296.4051818847656 A 2 2 0 0 1 255.5 296.4051818847656 A 2 2 0 0 1 259.5 296.4051818847656" fill-opacity="1" clip-path="url(#rzOQTUmNTKfw)" stroke-opacity="1" stroke-linejoin="bevel" stroke-miterlimit="10" stroke-dasharray=""/><path fill="none" stroke="rgb(0,0,0)" paint-order="fill" d="M 57.5 305.5 L 357.5 305.5" stroke-opacity="1" stroke-linejoin="bevel" stroke-miterlimit="10" stroke-dasharray=""/><path fill="none" stroke="rgb(0,0,0)" paint-order="fill" d="M 57.5 311.5 L 57.5 303.5 M 113.5 311.5 L 113.5 303.5 M 168.5 311.5 L 168.5 303.5 M 224.5 311.5 L 224.5 303.5 M 279.5 311.5 L 279.5 303.5 M 335.5 311.5 L 335.5 303.5" stroke-opacity="1" stroke-linejoin="bevel" stroke-miterlimit="10" stroke-dasharray=""/><path fill="none" stroke="rgb(0,0,0)" paint-order="fill" d="M 57.5 309.5 L 57.5 305.5 M 68.5 309.5 L 68.5 305.5 M 79.5 309.5 L 79.5 305.5 M 90.5 309.5 L 90.5 305.5 M 101.5 309.5 L 101.5 305.5 M 113.5 309.5 L 113.5 305.5 M 124.5 309.5 L 124.5 305.5 M 135.5 309.5 L 135.5 305.5 M 146.5 309.5 L 146.5 305.5 M 157.5 309.5 L 157.5 305.5 M 168.5 309.5 L 168.5 305.5 M 179.5 309.5 L 179.5 305.5 M 190.5 309.5 L 190.5 305.5 M 201.5 309.5 L 201.5 305.5 M 213.5 309.5 L 213.5 305.5 M 224.5 309.5 L 224.5 305.5 M 235.5 309.5 L 235.5 305.5 M 246.5 309.5 L 246.5 305.5 M 257.5 309.5 L 257.5 305.5 M 268.5 309.5 L 268.5 305.5 M 279.5 309.5 L 279.5 305.5 M 290.5 309.5 L 290.5 305.5 M 301.5 309.5 L 301.5 305.5 M 313.5 309.5 L 313.5 305.5 M 324.5 309.5 L 324.5 305.5 M 335.5 309.5 L 335.5 305.5 M 346.5 309.5 L 346.5 305.5 M 357.5 309.5 L 357.5 305.5" stroke-opacity="1" stroke-linejoin="bevel" stroke-miterlimit="10" stroke-dasharray=""/><text fill="rgb(68,68,68)" stroke="none" font-family="helvetica" font-size="11px" font-style="normal" font-weight="normal" text-decoration="normal" x="50.125" y="323" text-anchor="start" dominant-baseline="alphabetic" transform="matrix(1, 0, 0, 1, 0.5, 0.5)" fill-opacity="1">2.5</text><text fill="none" stroke="rgb(0,0,0)" font-family="helvetica" font-size="11px" font-style="normal" font-weight="normal" text-decoration="normal" x="50.125" y="323" text-anchor="start" dominant-baseline="alphabetic" transform="matrix(1, 0, 0, 1, 0.5, 0.5)" stroke-opacity="0" stroke-linejoin="bevel" stroke-miterlimit="10" stroke-dasharray="">2.5</text><text fill="rgb(68,68,68)" stroke="none" font-family="helvetica" font-size="11px" font-style="normal" font-weight="normal" text-decoration="normal" x="109.80555725097656" y="323" text-anchor="start" dominant-baseline="alphabetic" transform="matrix(1, 0, 0, 1, 0.5, 0.5)" fill-opacity="1">3</text><text fill="none" stroke="rgb(0,0,0)" font-family="helvetica" font-size="11px" font-style="normal" font-weight="normal" text-decoration="normal" x="109.80555725097656" y="323" text-anchor="start" dominant-baseline="alphabetic" transform="matrix(1, 0, 0, 1, 0.5, 0.5)" stroke-opacity="0" stroke-linejoin="bevel" stroke-miterlimit="10" stroke-dasharray="">3</text><text fill="rgb(68,68,68)" stroke="none" font-family="helvetica" font-size="11px" font-style="normal" font-weight="normal" text-decoration="normal" x="161.23611450195312" y="323" text-anchor="start" dominant-baseline="alphabetic" transform="matrix(1, 0, 0, 1, 0.5, 0.5)" fill-opacity="1">3.5</text><text fill="none" stroke="rgb(0,0,0)" font-family="helvetica" font-size="11px" font-style="normal" font-weight="normal" text-decoration="normal" x="161.23611450195312" y="323" text-anchor="start" dominant-baseline="alphabetic" transform="matrix(1, 0, 0, 1, 0.5, 0.5)" stroke-opacity="0" stroke-linejoin="bevel" stroke-miterlimit="10" stroke-dasharray="">3.5</text><text fill="rgb(68,68,68)" stroke="none" font-family="helvetica" font-size="11px" font-style="normal" font-weight="normal" text-decoration="normal" x="220.9166717529297" y="323" text-anchor="start" dominant-baseline="alphabetic" transform="matrix(1, 0, 0, 1, 0.5, 0.5)" fill-opacity="1">4</text><text fill="none" stroke="rgb(0,0,0)" font-family="helvetica" font-size="11px" font-style="normal" font-weight="normal" text-decoration="normal" x="220.9166717529297" y="323" text-anchor="start" dominant-baseline="alphabetic" transform="matrix(1, 0, 0, 1, 0.5, 0.5)" stroke-opacity="0" stroke-linejoin="bevel" stroke-miterlimit="10" stroke-dasharray="">4</text><text fill="rgb(68,68,68)" stroke="none" font-family="helvetica" font-size="11px" font-style="normal" font-weight="normal" text-decoration="normal" x="272.34722900390625" y="323" text-anchor="start" dominant-baseline="alphabetic" transform="matrix(1, 0, 0, 1, 0.5, 0.5)" fill-opacity="1">4.5</text><text fill="none" stroke="rgb(0,0,0)" font-family="helvetica" font-size="11px" font-style="normal" font-weight="normal" text-decoration="normal" x="272.34722900390625" y="323" text-anchor="start" dominant-baseline="alphabetic" transform="matrix(1, 0, 0, 1, 0.5, 0.5)" stroke-opacity="0" stroke-linejoin="bevel" stroke-miterlimit="10" stroke-dasharray="">4.5</text><text fill="rgb(68,68,68)" stroke="none" font-family="helvetica" font-size="11px" font-style="normal" font-weight="normal" text-decoration="normal" x="332.02777099609375" y="323" text-anchor="start" dominant-baseline="alphabetic" transform="matrix(1, 0, 0, 1, 0.5, 0.5)" fill-opacity="1">5</text><text fill="none" stroke="rgb(0,0,0)" font-family="helvetica" font-size="11px" font-style="normal" font-weight="normal" text-decoration="normal" x="332.02777099609375" y="323" text-anchor="start" dominant-baseline="alphabetic" transform="matrix(1, 0, 0, 1, 0.5, 0.5)" stroke-opacity="0" stroke-linejoin="bevel" stroke-miterlimit="10" stroke-dasharray="">5</text><text fill="rgb(68,68,68)" stroke="none" font-family="helvetica" font-size="13px" font-style="italic" font-weight="normal" text-decoration="normal" x="171.25634765625" y="343" text-anchor="start" dominant-baseline="alphabetic" transform="matrix(1, 0, 0, 1, 0.5, 0.5)" fill-opacity="1">rise time (ms)</text><text fill="none" stroke="rgb(0,0,0)" font-family="helvetica" font-size="13px" font-style="italic" font-weight="normal" text-decoration="normal" x="171.25634765625" y="343" text-anchor="start" dominant-baseline="alphabetic" transform="matrix(1, 0, 0, 1, 0.5, 0.5)" stroke-opacity="0" stroke-linejoin="bevel" stroke-miterlimit="10" stroke-dasharray="">rise time (ms)</text><path fill="none" stroke="rgb(0,0,0)" paint-order="fill" d="M 57.5 5.5 L 57.5 305.5" stroke-opacity="1" stroke-linejoin="bevel" stroke-miterlimit="10" stroke-dasharray=""/><path fill="none" stroke="rgb(0,0,0)" paint-order="fill" d="M 51.5 5.5 L 59.5 5.5 M 51.5 72.5 L 59.5 72.5 M 51.5 138.5 L 59.5 138.5 M 51.5 205.5 L 59.5 205.5 M 51.5 272.5 L 59.5 272.5" stroke-opacity="1" stroke-linejoin="bevel" stroke-miterlimit="10" stroke-dasharray=""/><path fill="none" stroke="rgb(0,0,0)" paint-order="fill" d="M 53.5 5.5 L 57.5 5.5 M 53.5 18.5 L 57.5 18.5 M 53.5 32.5 L 57.5 32.5 M 53.5 45.5 L 57.5 45.5 M 53.5 58.5 L 57.5 58.5 M 53.5 72.5 L 57.5 72.5 M 53.5 85.5 L 57.5 85.5 M 53.5 98.5 L 57.5 98.5 M 53.5 112.5 L 57.5 112.5 M 53.5 125.5 L 57.5 125.5 M 53.5 138.5 L 57.5 138.5 M 53.5 152.5 L 57.5 152.5 M 53.5 165.5 L 57.5 165.5 M 53.5 178.5 L 57.5 178.5 M 53.5 192.5 L 57.5 192.5 M 53.5 205.5 L 57.5 205.5 M 53.5 218.5 L 57.5 218.5 M 53.5 232.5 L 57.5 232.5 M 53.5 245.5 L 57.5 245.5 M 53.5 258.5 L 57.5 258.5 M 53.5 272.5 L 57.5 272.5 M 53.5 285.5 L 57.5 285.5 M 53.5 298.5 L 57.5 298.5" stroke-opacity="1" stroke-linejoin="bevel" stroke-miterlimit="10" stroke-dasharray=""/><text fill="rgb(68,68,68)" stroke="none" font-family="helvetica" font-size="11px" font-style="normal" font-weight="normal" text-decoration="normal" x="26.04638671875" y="8.5" text-anchor="start" dominant-baseline="alphabetic" transform="matrix(1, 0, 0, 1, 0.5, 0.5)" fill-opacity="1">−5.4</text><text fill="none" stroke="rgb(0,0,0)" font-family="helvetica" font-size="11px" font-style="normal" font-weight="normal" text-decoration="normal" x="26.04638671875" y="8.5" text-anchor="start" dominant-baseline="alphabetic" transform="matrix(1, 0, 0, 1, 0.5, 0.5)" stroke-opacity="0" stroke-linejoin="bevel" stroke-miterlimit="10" stroke-dasharray="">−5.4</text><text fill="rgb(68,68,68)" stroke="none" font-family="helvetica" font-size="11px" font-style="normal" font-weight="normal" text-decoration="normal" x="26.04638671875" y="75.16666412353516" text-anchor="start" dominant-baseline="alphabetic" transform="matrix(1, 0, 0, 1, 0.5, 0.5)" fill-opacity="1">−5.2</text><text fill="none" stroke="rgb(0,0,0)" font-family="helvetica" font-size="11px" font-style="normal" font-weight="normal" text-decoration="normal" x="26.04638671875" y="75.16666412353516" text-anchor="start" dominant-baseline="alphabetic" transform="matrix(1, 0, 0, 1, 0.5, 0.5)" stroke-opacity="0" stroke-linejoin="bevel" stroke-miterlimit="10" stroke-dasharray="">−5.2</text><text fill="rgb(68,68,68)" stroke="none" font-family="helvetica" font-size="11px" font-style="normal" font-weight="normal" text-decoration="normal" x="34.29638671875" y="141.8333282470703" text-anchor="start" dominant-baseline="alphabetic" transform="matrix(1, 0, 0, 1, 0.5, 0.5)" fill-opacity="1">−5</text><text fill="none" stroke="rgb(0,0,0)" font-family="helvetica" font-size="11px" font-style="normal" font-weight="normal" text-decoration="normal" x="34.29638671875" y="141.8333282470703" text-anchor="start" dominant-baseline="alphabetic" transform="matrix(1, 0, 0, 1, 0.5, 0.5)" stroke-opacity="0" stroke-linejoin="bevel" stroke-miterlimit="10" stroke-dasharray="">−5</text><text fill="rgb(68,68,68)" stroke="none" font-family="helvetica" font-size="11px" font-style="normal" font-weight="normal" text-decoration="normal" x="26.04638671875" y="208.5" text-anchor="start" dominant-baseline="alphabetic" transform="matrix(1, 0, 0, 1, 0.5, 0.5)" fill-opacity="1">−4.8</text><text fill="none" stroke="rgb(0,0,0)" font-family="helvetica" font-size="11px" font-style="normal" font-weight="normal" text-decoration="normal" x="26.04638671875" y="208.5" text-anchor="start" dominant-baseline="alphabetic" transform="matrix(1, 0, 0, 1, 0.5, 0.5)" stroke-opacity="0" stroke-linejoin="bevel" stroke-miterlimit="10" stroke-dasharray="">−4.8</text><text fill="rgb(68,68,68)" stroke="none" font-family="helvetica" font-size="11px" font-style="normal" font-weight="normal" text-decoration="normal" x="26.04638671875" y="275.1666564941406" text-anchor="start" dominant-baseline="alphabetic" transform="matrix(1, 0, 0, 1, 0.5, 0.5)" fill-opacity="1">−4.6</text><text fill="none" stroke="rgb(0,0,0)" font-family="helvetica" font-size="11px" font-style="normal" font-weight="normal" text-decoration="normal" x="26.04638671875" y="275.1666564941406" text-anchor="start" dominant-baseline="alphabetic" transform="matrix(1, 0, 0, 1, 0.5, 0.5)" stroke-opacity="0" stroke-linejoin="bevel" stroke-miterlimit="10" stroke-dasharray="">−4.6</text><text fill="rgb(68,68,68)" stroke="none" font-family="helvetica" font-size="13px" font-style="italic" font-weight="normal" text-decoration="normal" x="-21.125" y="152" text-anchor="start" dominant-baseline="alphabetic" transform="matrix(6.123233995736766e-17, -1, 1, 6.123233995736766e-17, -136.45361328125, 173.54638671875)" fill-opacity="1">amplitude (pA)</text><text fill="none" stroke="rgb(0,0,0)" font-family="helvetica" font-size="13px" font-style="italic" font-weight="normal" text-decoration="normal" x="-21.125" y="152" text-anchor="start" dominant-baseline="alphabetic" transform="matrix(6.123233995736766e-17, -1, 1, 6.123233995736766e-17, -136.45361328125, 173.54638671875)" stroke-opacity="0" stroke-linejoin="bevel" stroke-miterlimit="10" stroke-dasharray="">amplitude (pA)</text><g clip-path="url(#IApxLOFWIrvA)"><text fill="rgb(68,68,68)" stroke="none" font-family="helvetica" font-size="16px" font-style="normal" font-weight="normal" text-decoration="normal" x="78.66666412353516" y="33.97307205200195" text-anchor="start" dominant-baseline="alphabetic" transform="matrix(0.8660254037844387, -0.49999999999999994, 0.49999999999999994, 0.8660254037844387, -7.447201464425177, 44.78678446078339)" fill-opacity="1">soma</text></g><g clip-path="url(#IApxLOFWIrvA)"><text fill="none" stroke="rgb(0,0,0)" font-family="helvetica" font-size="16px" font-style="normal" font-weight="normal" text-decoration="normal" x="78.66666412353516" y="33.97307205200195" text-anchor="start" dominant-baseline="alphabetic" transform="matrix(0.8660254037844387, -0.49999999999999994, 0.49999999999999994, 0.8660254037844387, -7.447201464425177, 44.78678446078339)" stroke-opacity="0" stroke-miterlimit="10" stroke-dasharray="">soma</text></g><g clip-path="url(#IApxLOFWIrvA)"><text fill="rgb(68,68,68)" stroke="none" font-family="helvetica" font-size="16px" font-style="normal" font-weight="normal" text-decoration="normal" x="139.77777099609375" y="84.8145980834961" text-anchor="start" dominant-baseline="alphabetic" transform="matrix(0.8660254037844387, -0.49999999999999994, 0.49999999999999994, 0.8660254037844387, -24.68062861263519, 82.15381081811505)" fill-opacity="1">dend685 (#1)</text></g><g clip-path="url(#IApxLOFWIrvA)"><text fill="none" stroke="rgb(0,0,0)" font-family="helvetica" font-size="16px" font-style="normal" font-weight="normal" text-decoration="normal" x="139.77777099609375" y="84.8145980834961" text-anchor="start" dominant-baseline="alphabetic" transform="matrix(0.8660254037844387, -0.49999999999999994, 0.49999999999999994, 0.8660254037844387, -24.68062861263519, 82.15381081811505)" stroke-opacity="0" stroke-miterlimit="10" stroke-dasharray="">dend685 (#1)</text></g><g clip-path="url(#IApxLOFWIrvA)"><text fill="rgb(68,68,68)" stroke="none" font-family="helvetica" font-size="16px" font-style="normal" font-weight="normal" text-decoration="normal" x="237" y="281.8194580078125" text-anchor="start" dominant-baseline="alphabetic" transform="matrix(0.8660254037844387, -0.49999999999999994, 0.49999999999999994, 0.8660254037844387, -110.15774970081816, 157.15857188093167)" fill-opacity="1">dend48 (#10)</text></g><g clip-path="url(#IApxLOFWIrvA)"><text fill="none" stroke="rgb(0,0,0)" font-family="helvetica" font-size="16px" font-style="normal" font-weight="normal" text-decoration="normal" x="237" y="281.8194580078125" text-anchor="start" dominant-baseline="alphabetic" transform="matrix(0.8660254037844387, -0.49999999999999994, 0.49999999999999994, 0.8660254037844387, -110.15774970081816, 157.15857188093167)" stroke-opacity="0" stroke-miterlimit="10" stroke-dasharray="">dend48 (#10)</text></g><g clip-path="url(#IApxLOFWIrvA)"><text fill="rgb(68,68,68)" stroke="none" font-family="helvetica" font-size="16px" font-style="normal" font-weight="normal" text-decoration="normal" x="262" y="287.9051818847656" text-anchor="start" dominant-baseline="alphabetic" transform="matrix(0.8660254037844387, -0.49999999999999994, 0.49999999999999994, 0.8660254037844387, -109.85124673390573, 170.47390428002586)" fill-opacity="1">dend588 (#8)</text></g><g clip-path="url(#IApxLOFWIrvA)"><text fill="none" stroke="rgb(0,0,0)" font-family="helvetica" font-size="16px" font-style="normal" font-weight="normal" text-decoration="normal" x="262" y="287.9051818847656" text-anchor="start" dominant-baseline="alphabetic" transform="matrix(0.8660254037844387, -0.49999999999999994, 0.49999999999999994, 0.8660254037844387, -109.85124673390573, 170.47390428002586)" stroke-opacity="0" stroke-miterlimit="10" stroke-dasharray="">dend588 (#8)</text></g></svg>